<svg width="73" height="72" viewBox="0 0 73 72" fill="none" xmlns="http://www.w3.org/2000/svg">
<g clip-path="url(#clip0)">
<path d="M36.4991 3.61865C31.3432 3.61865 26.5604 6.19293 23.8158 10.6949L2.13296 46.2612C0.726709 48.5682 -0.0107051 51.1867 0.000273406 53.8343C0.0212324 58.9078 2.75175 63.6565 7.13902 66.2823C9.43396 67.6559 12.0892 68.3818 14.8174 68.3818H58.1831C60.9118 68.3818 63.567 67.6559 65.8618 66.2824C70.2507 63.6557 72.979 58.9057 73 53.8339C73.011 51.1862 72.2736 48.5676 70.8676 46.2612L49.1847 10.6949C46.4837 6.26409 41.7414 3.61865 36.4991 3.61865Z" fill="#FF8188"/>
<path d="M7.41776 53.8338C7.40678 51.1864 8.14419 48.5677 9.55044 46.2607L31.2334 10.6946C33.3037 7.2986 36.5341 5.00037 40.2092 4.07562C39.0166 3.77566 37.7729 3.61816 36.4993 3.61816C31.3434 3.61816 26.5606 6.19245 23.816 10.6944L2.13296 46.2609C0.726709 48.5678 -0.0107051 51.1864 0.000273406 53.834C0.0212324 58.9074 2.75175 63.6562 7.13902 66.2819C9.4341 67.6556 12.0892 68.3815 14.8176 68.3815H22.235C19.5068 68.3815 16.8516 67.6554 14.5566 66.2819C10.1694 63.6562 7.43886 58.9073 7.41776 53.8338Z" fill="#FF656F"/>
<path d="M36.4994 9.68018C39.3685 9.68004 42.237 11.0607 43.918 13.8183L65.6009 49.3847C69.0728 55.08 64.9243 62.3198 58.1837 62.3198H14.8179C8.08141 62.3198 3.92683 55.0833 7.40046 49.3847L29.0836 13.8183C30.7662 11.0584 33.633 9.68032 36.4994 9.68018Z" fill="#FF656F"/>
<path d="M14.8179 49.3845L36.5011 13.8182C37.4378 12.2816 38.7423 11.1746 40.2088 10.4941C39.0411 9.95243 37.7704 9.68004 36.4992 9.68018C33.6328 9.68032 30.766 11.0584 29.0834 13.8183L7.40042 49.3845C3.92679 55.0832 8.08123 62.3196 14.8179 62.3196H22.2354C15.4987 62.3196 11.3443 55.0832 14.8179 49.3845Z" fill="#FF4756"/>
<path d="M36.4993 22.835C33.1863 22.835 32.5743 25.8875 32.7582 29.032L33.2638 40.1602C33.9808 43.6373 39.0196 43.629 39.7349 40.1602L40.2405 29.032C40.4246 25.6396 39.8133 22.835 36.4993 22.835Z" fill="#DFEBFA"/>
<path d="M36.4991 54.2458C38.5075 54.2458 40.1357 52.64 40.1357 50.659C40.1357 48.6781 38.5075 47.0723 36.4991 47.0723C34.4906 47.0723 32.8625 48.6781 32.8625 50.659C32.8625 52.64 34.4906 54.2458 36.4991 54.2458Z" fill="#DFEBFA"/>
<path d="M37.1813 40.1603L36.6757 29.032C36.5356 26.6355 36.8594 24.2939 38.4873 23.3148C37.9699 23.0064 37.3172 22.835 36.4992 22.835C33.1863 22.835 32.5743 25.8875 32.7582 29.0319L33.2638 40.1601C33.7951 42.7361 36.6971 43.397 38.4571 42.1571C37.8427 41.7239 37.3668 41.0597 37.1813 40.1603Z" fill="#B1DBFC"/>
<path d="M36.78 50.6586C36.78 49.3893 37.4491 48.2748 38.4579 47.6372C37.8924 47.2798 37.2206 47.0718 36.4991 47.0718C34.4906 47.0718 32.8625 48.6776 32.8625 50.6586C32.8625 52.6395 34.4906 54.2453 36.4991 54.2453C37.2206 54.2453 37.8924 54.0372 38.4579 53.6799C37.4491 53.0423 36.78 51.9278 36.78 50.6586Z" fill="#B1DBFC"/>
</g>
<defs>
<clipPath id="clip0">
<rect width="73" height="72" fill="white"/>
</clipPath>
</defs>
</svg>
