<svg width="120" height="120" viewBox="0 0 120 120" fill="none" xmlns="http://www.w3.org/2000/svg">
<path d="M120 60.0001C120 93.1628 93.1013 120 60 120C26.8373 120 0 93.1014 0 60.0001C0 26.8373 26.8987 0.000104949 60 0.000104949C93.1627 -0.0613075 120 26.8373 120 60.0001Z" fill="#FFC907"/>
<path d="M19.5288 90.7063L59.9996 120C95.4346 119.079 120 91.0133 120 60.0001C120 59.0175 119.508 52.8148 119.447 51.7708L100.47 33.347L19.5288 90.7063Z" fill="#BF8F08"/>
<path d="M59.9996 33.347C36.0488 24.0738 19.5288 33.347 19.5288 33.347V90.7063C35.4346 82.7841 59.9996 90.7063 59.9996 90.7063C59.9996 90.7063 84.5032 82.7841 100.47 90.7063V33.347C100.47 33.347 83.9505 24.0738 59.9996 33.347Z" fill="#EF5E25"/>
<path d="M59.9999 36.4176V87.2671C59.9999 87.2671 37.6458 80.2661 23.091 87.2671V36.4176C23.0296 36.4176 38.0757 28.1883 59.9999 36.4176Z" fill="#E3DECA"/>
<path d="M60 36.4176V87.2671C60 87.2671 82.3541 80.2661 96.9089 87.2671V36.4176C96.9089 36.4176 81.8628 28.1883 60 36.4176Z" fill="#FCF8DD"/>
<path d="M56.438 42.3132C39.9794 36.2948 26.8372 42.2518 26.7143 42.3132L26.1616 41.1464C26.2844 41.085 39.8566 34.9438 56.8679 41.1464L56.438 42.3132Z" fill="#C4BFAB"/>
<path d="M56.438 45.4453C39.9794 39.4268 26.8372 45.3838 26.7143 45.4453L26.1616 44.2784C26.2844 44.217 39.8566 38.0758 56.8679 44.2784L56.438 45.4453Z" fill="#C4BFAB"/>
<path d="M56.438 48.6387C39.9794 42.6203 26.8372 48.5773 26.7143 48.6387L26.1616 47.4718C26.2844 47.4104 39.8566 41.2692 56.8679 47.4718L56.438 48.6387Z" fill="#C4BFAB"/>
<path d="M26.4073 51.5251L25.916 50.3582C26.1617 50.2354 32.0573 47.9018 41.5148 47.9632V49.2528C32.3643 49.13 26.4687 51.5251 26.4073 51.5251Z" fill="#C4BFAB"/>
<path d="M56.438 61.9038C39.9794 55.8854 26.8372 61.8424 26.7143 61.9038L26.1616 60.737C26.2844 60.6756 39.8566 54.5343 56.8679 60.737L56.438 61.9038Z" fill="#C4BFAB"/>
<path d="M56.438 65.0358C39.9794 59.0174 26.8372 64.9744 26.7143 65.0358L26.1616 63.869C26.2844 63.8076 39.8566 57.6663 56.8679 63.869L56.438 65.0358Z" fill="#C4BFAB"/>
<path d="M56.438 75.783C39.9794 69.7646 26.8372 75.7216 26.7143 75.783L26.1616 74.6161C26.2844 74.5547 39.8566 68.4135 56.8679 74.6161L56.438 75.783Z" fill="#C4BFAB"/>
<path d="M56.438 78.9765C39.9794 72.9581 26.8372 78.9151 26.7143 78.9765L26.1616 77.8097C26.2844 77.7483 39.8566 71.607 56.8679 77.8097L56.438 78.9765Z" fill="#C4BFAB"/>
<path d="M56.438 82.1084C39.9794 76.09 26.8372 82.047 26.7143 82.1084L26.1616 80.9416C26.2844 80.8802 39.8566 74.7389 56.8679 80.9416L56.438 82.1084Z" fill="#C4BFAB"/>
<path d="M93.3467 42.3132C76.8881 36.2948 63.7458 42.2518 63.623 42.3132L63.0703 41.1464C63.1931 41.085 76.7653 34.9438 93.7151 41.1464L93.3467 42.3132Z" fill="#C4BFAB"/>
<path d="M93.3467 45.4453C76.8881 39.4268 63.7458 45.3838 63.623 45.4453L63.0703 44.2784C63.1931 44.217 76.7653 38.0758 93.7151 44.2784L93.3467 45.4453Z" fill="#C4BFAB"/>
<path d="M93.3467 48.6387C76.8881 42.6203 63.7458 48.5773 63.623 48.6387L63.0703 47.4718C63.1931 47.4104 76.7653 41.2692 93.7151 47.4718L93.3467 48.6387Z" fill="#C4BFAB"/>
<path d="M93.3467 51.7708C76.8881 45.7523 63.7458 51.7094 63.623 51.7708L63.0703 50.6039C63.1931 50.5425 76.7653 44.4013 93.7151 50.6039L93.3467 51.7708Z" fill="#C4BFAB"/>
<path d="M93.3467 54.9642C76.8881 48.9458 63.7458 54.9028 63.623 54.9642L63.0703 53.7974C63.1931 53.7359 76.7653 47.5947 93.7151 53.7974L93.3467 54.9642Z" fill="#C4BFAB"/>
<path d="M93.3467 58.0963C76.8881 52.0778 63.7458 58.0349 63.623 58.0963L63.0703 56.9294C63.1931 56.868 76.7653 50.7268 93.7151 56.9294L93.3467 58.0963Z" fill="#C4BFAB"/>
<path d="M93.5308 61.1054L94.0221 59.9386C93.7765 59.8157 87.8809 57.4821 78.4233 57.5435V58.8331C87.6352 58.7717 93.5308 61.1054 93.5308 61.1054Z" fill="#C4BFAB"/>
<path d="M63.1318 67.2467V79.4063C63.1318 79.4063 72.7122 74.4933 93.7767 79.4063V67.2467C93.7767 67.2467 81.8012 61.2897 63.1318 67.2467Z" fill="#C4BFAB"/>
<path d="M68.1063 58.8946V33.9611C66.0796 34.391 63.9916 35.0051 61.7808 35.7421V58.8946L64.9128 55.7011L68.1063 58.8946Z" fill="#DD4212"/>
</svg>
