<svg width="120" height="120" viewBox="0 0 120 120" fill="none" xmlns="http://www.w3.org/2000/svg">
<path d="M120 60C120 93.1628 93.1013 120 60 120C26.8373 120 0 93.1013 0 60C0 26.8373 26.8987 0.000104949 60 0.000104949C93.1013 -0.0613075 120 26.8373 120 60Z" fill="#94CDAD"/>
<path d="M112.139 89.7237C117.114 80.9417 120 70.8087 120 60.0001C120 57.6664 119.877 55.3942 119.632 53.1219L92.9786 30.7064L64.1148 87.7585L29.5396 102.866L60.0001 119.939C60.0001 119.939 64.1148 120.061 69.8261 119.14C80.819 117.359 91.8118 112.078 100.102 104.586L112.139 89.7237Z" fill="#5C9971"/>
<path d="M92.6101 89.7851C92.6101 89.7851 89.8466 95.128 92.9172 101.146H29.8466L29.5396 88.9868L92.6101 89.7851Z" fill="#E7E6E6"/>
<path d="M92.4873 90.3993H29.478V90.8906H92.4873V90.3993Z" fill="#D0D1D1"/>
<path d="M92.4873 91.3819H29.478V91.8732H92.4873V91.3819Z" fill="#D0D1D1"/>
<path d="M92.4873 92.8558H29.478V93.3471H92.4873V92.8558Z" fill="#D0D1D1"/>
<path d="M92.4873 94.3911H29.478V94.8824H92.4873V94.3911Z" fill="#D0D1D1"/>
<path d="M92.4873 95.3737H29.478V95.865H92.4873V95.3737Z" fill="#D0D1D1"/>
<path d="M92.4873 96.3563H29.478V96.8476H92.4873V96.3563Z" fill="#D0D1D1"/>
<path d="M92.4873 97.8301H29.478V98.3214H92.4873V97.8301Z" fill="#D0D1D1"/>
<path d="M92.4873 99.3041H29.478V99.7954H92.4873V99.3041Z" fill="#D0D1D1"/>
<path d="M30.338 94.0226C30.338 93.5313 30.338 92.9785 30.338 92.4258C30.338 89.5394 32.6717 89.7851 32.6717 89.7851H93.8999V86.4688H32.0575C30.7679 86.4688 29.8467 86.8373 29.2326 87.39C29.1712 87.4514 29.1097 87.5128 29.0483 87.5128L28.9869 87.5743C27.8201 88.7411 23.2755 94.1454 28.4956 101.699C29.0483 102.682 30.1537 103.541 32.0575 103.541H93.8999V100.225H32.6717C32.6717 100.225 30.338 100.471 30.338 97.5845C30.338 96.9704 30.338 96.479 30.338 95.9877C30.338 96.1106 30.338 95.2508 30.338 94.0226Z" fill="#EF0F44"/>
<path d="M26.9604 81.8015L40.4098 86.6531L64.0536 21.3103C64.0536 21.3103 58.6493 15.169 50.5428 16.5815L26.9604 81.8015Z" fill="#FBAA3E"/>
<path d="M53.7978 41.7606L45.3843 38.69L52.201 19.9592L60.6146 23.0298L53.7978 41.7606ZM46.6739 38.0758L53.1837 40.4095L59.2635 23.5825L52.7538 21.2488L46.6739 38.0758Z" fill="#524938"/>
<path d="M33.7613 63.0545L32.5474 66.4031L45.9993 71.2796L47.2132 67.9311L33.7613 63.0545Z" fill="#524938"/>
<path d="M32.0168 67.7785L30.8032 71.1274L44.2566 76.0025L45.4702 72.6536L32.0168 67.7785Z" fill="#524938"/>
<path opacity="0.4" d="M31.6892 83.7053L26.9604 81.9243L50.6043 16.5815C50.6043 16.5815 51.0341 16.4587 53.0608 16.3973C54.1662 16.3359 55.7015 16.6429 55.7015 16.6429L31.6892 83.7053Z" fill="url(#paint0_linear)"/>
<path d="M76.5813 86.4689H60.2456V30.5836C60.2456 30.5836 68.4135 26.5918 76.5813 30.7064V86.4689Z" fill="#961C45"/>
<path d="M76.5813 70.686H60.2456V74.7392H76.5813V70.686Z" fill="#600B2C"/>
<path d="M76.5813 76.4587H60.2456V80.5119H76.5813V76.4587Z" fill="#600B2C"/>
<path d="M76.5813 35.8651H60.2456V39.9183H76.5813V35.8651Z" fill="#600B2C"/>
<path d="M76.5813 41.6379H60.2456V45.6912H76.5813V41.6379Z" fill="#600B2C"/>
<path opacity="0.4" d="M66.3254 86.4688H60.2456V30.5835C60.2456 30.5835 60.4912 30.3379 63.132 29.6009C64.3602 29.2325 66.3254 28.9868 66.3254 28.9868V86.4688Z" fill="url(#paint1_linear)"/>
<path d="M92.9172 86.4689H76.5815V30.5836C76.5815 30.5836 84.7494 26.5918 92.9172 30.7064V86.4689Z" fill="#E3496F"/>
<path d="M89.2323 35.8651H80.2661V46.428H89.2323V35.8651Z" fill="#AD274D"/>
<path opacity="0.4" d="M82.6614 86.4688H76.5815V30.5835C76.5815 30.5835 76.8272 30.3379 79.4679 29.6009C80.6962 29.2325 82.7228 28.9868 82.7228 28.9868V86.4688H82.6614Z" fill="url(#paint2_linear)"/>
<defs>
<linearGradient id="paint0_linear" x1="28.7172" y1="82.5629" x2="54.1557" y2="16.0466" gradientUnits="userSpaceOnUse">
<stop stop-color="white"/>
<stop offset="1" stop-color="white"/>
</linearGradient>
<linearGradient id="paint1_linear" x1="63.2592" y1="86.4923" x2="63.2592" y2="28.9985" gradientUnits="userSpaceOnUse">
<stop stop-color="white"/>
<stop offset="1" stop-color="white"/>
</linearGradient>
<linearGradient id="paint2_linear" x1="79.6135" y1="86.4923" x2="79.6135" y2="28.9985" gradientUnits="userSpaceOnUse">
<stop stop-color="white"/>
<stop offset="1" stop-color="white"/>
</linearGradient>
</defs>
</svg>
