<svg width="120" height="120" viewBox="0 0 120 120" fill="none" xmlns="http://www.w3.org/2000/svg">
<path d="M120 60.0001C120 93.1628 93.1013 120 60 120C26.8373 120 0 93.1014 0 60.0001C0 26.8373 26.8987 0.000104949 60 0.000104949C93.1013 -0.0613075 120 26.8373 120 60.0001Z" fill="#3A8789"/>
<path d="M120 60.0001C120 54.6572 119.325 49.4985 117.974 44.5241L98.9357 26.8373L20.9419 78.608L70.0719 119.079C98.4444 114.35 120 89.6623 120 60.0001Z" fill="#1D5656"/>
<path d="M23.2754 27.4514C23.2754 27.4514 60.4299 21.5558 60.4299 35.1894H52.999L23.2754 27.4514Z" fill="#EAF4EF"/>
<path d="M97.5842 27.4514C97.5842 27.4514 60.4297 21.5558 60.4297 35.1894H67.8606L97.5842 27.4514Z" fill="#EAF4EF"/>
<path d="M52.999 35.1894C52.999 35.1894 59.693 37.8301 66.9397 35.1894V91.6888C66.9397 91.6888 60.6756 96.2948 52.999 91.6888V35.1894Z" fill="#48C18D"/>
<path d="M66.8781 35.1894H52.9375C52.9989 35.1894 59.6929 37.8301 66.8781 35.1894Z" fill="#2F8E63"/>
<path d="M52.999 37.5845C52.999 37.5845 60.0001 40.8393 66.9397 37.5845V44.5241C66.9397 44.5241 60.9212 49.3757 52.999 44.5241V37.5845Z" fill="#30B277"/>
<path d="M52.999 81.6172C52.999 81.6172 60.0001 84.872 66.9397 81.6172V88.5568C66.9397 88.5568 60.9212 93.4084 52.999 88.5568V81.6172Z" fill="#30B277"/>
<path d="M20.9419 26.8373V78.6694L52.9992 91.7502V35.1894L20.9419 26.8373Z" fill="#83E2BE"/>
<path d="M51.9547 89.478L21.9854 77.2569V29.171L22.3538 29.2938L51.8932 37.0317V89.478H51.9547ZM22.5995 76.827L51.2791 88.5568V37.5231L22.5995 30.0307V76.827Z" fill="#4FC696"/>
<path d="M98.9353 26.8373V78.6694L66.8779 91.7502V35.1894L98.9353 26.8373Z" fill="#83E2BE"/>
<path d="M67.9223 36.9702L97.4617 29.2323L97.8301 29.1094V77.134L67.8608 89.355V36.9702H67.9223ZM97.2774 30.0306L68.5978 37.4615V88.4953L97.2774 76.7655V30.0306Z" fill="#4FC696"/>
</svg>
