<svg width="50" height="50" viewBox="0 0 50 50" fill="none" xmlns="http://www.w3.org/2000/svg">
<g clip-path="url(#clip0)">
<path d="M47.0586 24.9823C47.0586 28.101 46.4066 31.1098 45.1223 33.9264L44.7301 34.7862H25.0978L21.0693 19.6355L25.0978 3.4137H25.4899C31.2507 3.4137 36.6674 5.65683 40.7409 9.73134C44.8154 13.8049 47.0586 19.2215 47.0586 24.9823Z" fill="#C6C6C6"/>
<path d="M25.0983 3.4137V34.7862H5.26984L4.87768 33.9264C3.59337 31.1098 2.94141 28.101 2.94141 24.9823C2.94141 19.2215 5.18454 13.8049 9.25905 9.73134C13.3326 5.65683 18.7493 3.4137 24.51 3.4137H25.0983Z" fill="white"/>
<path d="M38.5002 34.0824H37.0022L25.0983 34.101L23.1191 28.5118L25.0983 22.3275H26.7443C30.2434 22.3275 33.5345 23.8687 35.7747 26.5569C37.5326 28.6657 38.5002 31.3383 38.5002 34.0824Z" fill="#2682FF"/>
<path d="M25.098 22.3275V34.101L14.4422 34.1177C14.4422 34.1187 14.4412 34.1197 14.4412 34.1206H11.5C11.5 31.3481 12.4853 28.654 14.2745 26.5363L14.3059 26.4981C16.5451 23.8471 19.8186 22.3275 23.2882 22.3275H25.098Z" fill="#2FC0F0"/>
<path d="M48.5292 33.351V45.1157H25.0978L23.7393 39.2333L25.0978 33.351H48.5292Z" fill="#FFDA44"/>
<path d="M1.4707 33.351H25.0981V45.1157H1.4707V33.351Z" fill="#FFF68E"/>
<path d="M25.098 34.8215L25.7843 33.351L25.098 31.8804H0V46.5863H25.098L25.7843 45.1157L25.098 43.6451H2.94118V34.8215H25.098Z" fill="#FFDA44"/>
<path d="M49.9996 31.8804V46.5863H25.0977V43.6451H47.0584V34.8215H25.0977V33.351V31.8804H49.9996Z" fill="#FF9F22"/>
<path d="M26.4703 37.7627V40.7039H25.0978L24.3135 39.2333L25.0978 37.7627H26.4703Z" fill="#FF9F22"/>
<path d="M23.5293 37.7627H25.0979V40.7039H23.5293V37.7627Z" fill="#FFDA44"/>
<path d="M16.1768 37.7627H19.1179V40.7039H16.1768V37.7627Z" fill="#FFDA44"/>
<path d="M8.82324 37.7627H11.7644V40.7039H8.82324V37.7627Z" fill="#FFDA44"/>
<path d="M30.8818 37.7627H33.823V40.7039H30.8818V37.7627Z" fill="#FF9F22"/>
<path d="M38.2354 37.7627H41.1765V40.7039H38.2354V37.7627Z" fill="#FF9F22"/>
<path d="M33.1047 17.2362C33.1047 21.6558 29.5154 25.2548 25.0978 25.2686L23.7393 16.3775L25.0978 9.20483C29.5154 9.21856 33.1047 12.8166 33.1047 17.2362Z" fill="#2FC0F0"/>
<path d="M25.0979 9.20483V25.2686H25.0724C20.644 25.2686 17.041 21.6646 17.041 17.2362C17.041 12.8078 20.644 9.20483 25.0724 9.20483H25.0979Z" fill="#9EE2F8"/>
</g>
<defs>
<clipPath id="clip0">
<rect width="50" height="50" fill="white"/>
</clipPath>
</defs>
</svg>
