<svg width="70" height="70" viewBox="0 0 70 70" fill="none" xmlns="http://www.w3.org/2000/svg">
<path d="M40.6431 69.5444C40.3515 69.592 40.0589 69.6358 39.7651 69.6758C40.0589 69.6358 40.3515 69.592 40.6431 69.5444Z" fill="#412929"/>
<path d="M41.3435 69.4248C41.2041 69.4504 41.0647 69.4739 40.9253 69.498C41.0647 69.4739 41.2041 69.4504 41.3435 69.4248Z" fill="#412929"/>
<path d="M38.9837 69.7727C38.6425 69.8112 38.2991 69.8453 37.9546 69.8742C38.2991 69.8453 38.6425 69.8112 38.9837 69.7727Z" fill="#412929"/>
<path d="M39.6561 69.6906C39.4921 69.7124 39.3271 69.7327 39.1626 69.752C39.3271 69.7327 39.4921 69.7124 39.6561 69.6906Z" fill="#412929"/>
<path d="M42.2963 69.2361C42.1735 69.2623 42.0501 69.2884 41.9268 69.3135C42.0501 69.2884 42.1735 69.2623 42.2963 69.2361Z" fill="#412929"/>
<path d="M44.6613 68.6481C44.562 68.6764 44.4626 68.7031 44.3633 68.7309C44.4626 68.7031 44.562 68.6764 44.6613 68.6481Z" fill="#412929"/>
<path d="M43.9458 68.8438C43.8379 68.8721 43.7295 68.9009 43.6211 68.9281C43.7295 68.9009 43.8379 68.8726 43.9458 68.8438Z" fill="#412929"/>
<path d="M43.0105 69.0776C42.8962 69.1043 42.7809 69.1294 42.6655 69.1551C42.7809 69.1294 42.8962 69.1043 43.0105 69.0776Z" fill="#412929"/>
<path d="M37.9429 69.8752C37.7587 69.8907 37.5744 69.9046 37.3896 69.9169C37.5744 69.9046 37.7587 69.8907 37.9429 69.8752Z" fill="#412929"/>
<path d="M70 35C70 15.673 54.327 0 35 0C15.673 0 0 15.673 0 35C0 54.327 15.673 70 35 70C35.2056 70 35.4102 69.9957 35.6152 69.992V42.746H28.0957V33.9826H35.6152V27.5339C35.6152 20.0549 40.1809 15.9843 46.8523 15.9843C50.0471 15.9843 52.7932 16.2225 53.5938 16.3288V24.1453H48.9934C45.3639 24.1453 44.6611 25.8703 44.6611 28.4012V33.9826H53.3395L52.2084 42.746H44.6611V68.6478C59.2905 64.4538 70 50.9758 70 35Z" fill="#475993"/>
<path d="M37.3123 69.9222C36.9481 69.9457 36.5822 69.9644 36.2153 69.9767C36.5822 69.9644 36.9481 69.9457 37.3123 69.9222Z" fill="#412929"/>
<path d="M36.1973 69.9775C36.0039 69.9839 35.8101 69.9888 35.6162 69.992C35.8101 69.9888 36.0039 69.9839 36.1973 69.9775Z" fill="#412929"/>
</svg>
