<svg width="100" height="100" viewBox="0 0 100 100" fill="none" xmlns="http://www.w3.org/2000/svg">
<path d="M96.8755 49.6445V89.1172C96.8754 90.3129 96.4006 91.4597 95.5552 92.3053C94.7099 93.151 93.5634 93.6264 92.3677 93.627H65.604C65.0119 93.6269 64.4256 93.5101 63.8786 93.2834C63.3316 93.0567 62.8346 92.7245 62.416 92.3057C61.9974 91.887 61.6654 91.3898 61.439 90.8427C61.2125 90.2956 61.096 89.7093 61.0962 89.1172V49.6445C61.0961 49.0525 61.2126 48.4663 61.4391 47.9193C61.6656 47.3724 61.9977 46.8754 62.4163 46.4568C62.8349 46.0382 63.3319 45.7061 63.8788 45.4796C64.4258 45.2531 65.012 45.1366 65.604 45.1367H71.6919V45.1504C71.6918 45.5906 71.7784 46.0264 71.9468 46.4331C72.1152 46.8398 72.3621 47.2093 72.6733 47.5205C72.9846 47.8318 73.3541 48.0786 73.7607 48.247C74.1674 48.4154 74.6033 48.5021 75.0435 48.502H82.9282C83.3684 48.5021 83.8043 48.4154 84.2109 48.247C84.6176 48.0786 84.9871 47.8318 85.2984 47.5205C85.6096 47.2093 85.8565 46.8398 86.0249 46.4331C86.1933 46.0264 86.2799 45.5906 86.2798 45.1504V45.1367H92.3677C93.5632 45.1368 94.7097 45.6118 95.5551 46.4571C96.4004 47.3025 96.8754 48.449 96.8755 49.6445ZM73.6177 74.6348V68.1934H67.1782V74.6348H73.6177Z" fill="#F8EC7D"/>
<path d="M71.6919 45.1367V44.9316C71.6918 44.4915 71.7784 44.0556 71.9468 43.6489C72.1152 43.2423 72.3621 42.8727 72.6733 42.5615C72.9846 42.2503 73.3541 42.0034 73.7607 41.835C74.1674 41.6666 74.6033 41.58 75.0435 41.5801H82.9282C83.3684 41.58 83.8043 41.6666 84.2109 41.835C84.6176 42.0034 84.9871 42.2503 85.2984 42.5615C85.6096 42.8727 85.8565 43.2423 86.0249 43.6489C86.1933 44.0556 86.2799 44.4915 86.2798 44.9316V45.1504C86.2799 45.5906 86.1933 46.0264 86.0249 46.4331C85.8565 46.8398 85.6096 47.2093 85.2984 47.5205C84.9871 47.8318 84.6176 48.0786 84.2109 48.247C83.8043 48.4154 83.3684 48.5021 82.9282 48.502H75.0435C74.6033 48.5021 74.1674 48.4154 73.7607 48.247C73.3541 48.0786 72.9846 47.8318 72.6733 47.5205C72.3621 47.2093 72.1152 46.8398 71.9468 46.4331C71.7784 46.0264 71.6918 45.5906 71.6919 45.1504V45.1367Z" fill="#6FE3FF"/>
<path d="M76.4272 27.5352V41.5801H75.0425C74.6023 41.58 74.1665 41.6666 73.7598 41.835C73.3531 42.0034 72.9836 42.2503 72.6723 42.5615C72.3611 42.8727 72.1142 43.2423 71.9458 43.6489C71.7774 44.0556 71.6908 44.4915 71.6909 44.9316V45.1367H65.603C65.011 45.1366 64.4248 45.2531 63.8778 45.4796C63.3309 45.7061 62.8339 46.0382 62.4153 46.4568C61.9967 46.8754 61.6646 47.3724 61.4381 47.9193C61.2116 48.4663 61.0951 49.0525 61.0952 49.6445V78.707L39.7749 91.0156V48.6914L76.4233 27.5332L76.4272 27.5352Z" fill="#C16752"/>
<path d="M39.7754 48.6914L21.0918 37.9043L57.7383 16.7441H57.7402L76.4238 27.5332L39.7754 48.6914Z" fill="#AF593C"/>
<path d="M73.6172 68.1934H67.1777V74.6348H73.6172V68.1934Z" fill="#6FE3FF"/>
<path d="M57.7388 16.7441L21.0923 37.9043L3.12939 27.5332L39.7759 6.37305L57.7388 16.7441Z" fill="#C16752"/>
<path d="M39.7754 48.6914V91.0156L3.125 69.8555V27.5352L3.12891 27.5332L21.0918 37.9043L39.7754 48.6914Z" fill="#E48E66"/>
<path d="M68.6094 63.4785H67.1777C66.8151 63.4785 66.4674 63.3345 66.211 63.0781C65.9546 62.8217 65.8105 62.4739 65.8105 62.1113V55.6699C65.8105 55.3073 65.9546 54.9596 66.211 54.7032C66.4674 54.4468 66.8151 54.3027 67.1777 54.3027H73.6172C73.9798 54.3027 74.3275 54.4468 74.5839 54.7032C74.8403 54.9596 74.9844 55.3073 74.9844 55.6699V56.5898C74.9847 56.9133 74.8702 57.2265 74.6614 57.4736C74.4526 57.7206 74.163 57.8857 73.8439 57.9393C73.5249 57.993 73.1972 57.9318 72.919 57.7666C72.6409 57.6014 72.4303 57.3429 72.3248 57.0371H68.5449V60.7441H68.6094C68.972 60.7441 69.3197 60.8882 69.5761 61.1446C69.8325 61.401 69.9766 61.7487 69.9766 62.1113C69.9766 62.4739 69.8325 62.8217 69.5761 63.0781C69.3197 63.3345 68.972 63.4785 68.6094 63.4785Z" fill="#6FE3FF"/>
<path d="M68.6094 88.5234H67.1777C66.8151 88.5234 66.4674 88.3794 66.211 88.123C65.9546 87.8666 65.8105 87.5189 65.8105 87.1562V80.7168C65.8105 80.3542 65.9546 80.0064 66.211 79.7501C66.4674 79.4937 66.8151 79.3496 67.1777 79.3496H73.6172C73.9798 79.3496 74.3276 79.4937 74.5839 79.7501C74.8403 80.0064 74.9844 80.3542 74.9844 80.7168V82.0332C74.9877 82.2127 74.9557 82.3912 74.89 82.5583C74.8244 82.7255 74.7265 82.8781 74.6019 83.0074C74.4773 83.1367 74.3285 83.2402 74.1639 83.312C73.9993 83.3838 73.8221 83.4225 73.6426 83.4258C73.463 83.4291 73.2846 83.3971 73.1175 83.3314C72.9503 83.2658 72.7977 83.1679 72.6684 83.0433C72.5391 82.9187 72.4356 82.7698 72.3638 82.6053C72.292 82.4407 72.2533 82.2635 72.25 82.084H68.5449V85.7891H68.6094C68.972 85.7891 69.3197 85.9331 69.5761 86.1895C69.8325 86.4459 69.9766 86.7936 69.9766 87.1562C69.9766 87.5189 69.8325 87.8666 69.5761 88.123C69.3197 88.3794 68.972 88.5234 68.6094 88.5234Z" fill="#6FE3FF"/>
<path d="M72.7618 63.2795C72.5823 63.2798 72.4046 63.2446 72.2388 63.1759C72.0729 63.1073 71.9223 63.0065 71.7956 62.8795L69.6094 60.6959C69.4825 60.5689 69.3818 60.4182 69.3131 60.2523C69.2443 60.0864 69.209 59.9086 69.209 59.7291C69.209 59.5495 69.2443 59.3717 69.3131 59.2059C69.3818 59.04 69.4825 58.8892 69.6094 58.7623C69.7364 58.6353 69.8871 58.5346 70.053 58.4659C70.2189 58.3972 70.3967 58.3618 70.5762 58.3618C70.7558 58.3618 70.9336 58.3972 71.0995 58.4659C71.2654 58.5346 71.4161 58.6353 71.543 58.7623L72.762 59.9801L76.7659 55.9761C76.8928 55.8492 77.0436 55.7485 77.2095 55.6798C77.3753 55.611 77.5531 55.5757 77.7327 55.5757C77.9122 55.5757 78.09 55.611 78.2559 55.6798C78.4218 55.7485 78.5725 55.8492 78.6995 55.9761C78.8264 56.1031 78.9272 56.2538 78.9959 56.4197C79.0646 56.5856 79.0999 56.7634 79.0999 56.9429C79.0999 57.1225 79.0646 57.3003 78.9959 57.4662C78.9272 57.6321 78.8264 57.7828 78.6995 57.9097L73.7288 62.8804C73.6018 63.0074 73.451 63.1079 73.2851 63.1764C73.1191 63.2449 72.9413 63.2799 72.7618 63.2795Z" fill="#2561A1"/>
<path d="M72.7618 88.5236C72.5823 88.5239 72.4046 88.4887 72.2388 88.42C72.0729 88.3514 71.9223 88.2507 71.7956 88.1236L69.6094 85.94C69.4825 85.813 69.3818 85.6623 69.3131 85.4964C69.2443 85.3306 69.209 85.1528 69.209 84.9732C69.209 84.7937 69.2443 84.6159 69.3131 84.45C69.3818 84.2841 69.4825 84.1334 69.6094 84.0064C69.7364 83.8795 69.8871 83.7787 70.053 83.71C70.2189 83.6413 70.3967 83.606 70.5762 83.606C70.7558 83.606 70.9336 83.6413 71.0995 83.71C71.2654 83.7787 71.4161 83.8795 71.543 84.0064L72.762 85.2242L76.7659 81.2203C76.8928 81.0933 77.0436 80.9926 77.2095 80.9239C77.3753 80.8552 77.5531 80.8198 77.7327 80.8198C77.9122 80.8198 78.09 80.8552 78.2559 80.9239C78.4218 80.9926 78.5725 81.0933 78.6995 81.2203C78.8264 81.3472 78.9272 81.498 78.9959 81.6639C79.0646 81.8297 79.0999 82.0075 79.0999 82.1871C79.0999 82.3666 79.0646 82.5444 78.9959 82.7103C78.9272 82.8762 78.8264 83.0269 78.6995 83.1539L73.7288 88.1246C73.6018 88.2515 73.451 88.3521 73.2851 88.4205C73.1191 88.489 72.9413 88.524 72.7618 88.5236Z" fill="#2561A1"/>
<path d="M90.7934 60.2578H82.2056C81.843 60.2578 81.4952 60.1138 81.2388 59.8574C80.9824 59.601 80.8384 59.2532 80.8384 58.8906C80.8384 58.528 80.9824 58.1803 81.2388 57.9239C81.4952 57.6675 81.843 57.5234 82.2056 57.5234H90.7934C91.1561 57.5234 91.5038 57.6675 91.7602 57.9239C92.0166 58.1803 92.1606 58.528 92.1606 58.8906C92.1606 59.2532 92.0166 59.601 91.7602 59.8574C91.5038 60.1138 91.1561 60.2578 90.7934 60.2578Z" fill="#E48E66"/>
<path d="M90.7934 72.7812H82.2056C81.843 72.7812 81.4952 72.6372 81.2388 72.3808C80.9824 72.1244 80.8384 71.7767 80.8384 71.4141C80.8384 71.0515 80.9824 70.7037 81.2388 70.4473C81.4952 70.1909 81.843 70.0469 82.2056 70.0469H90.7934C91.1561 70.0469 91.5038 70.1909 91.7602 70.4473C92.0166 70.7037 92.1606 71.0515 92.1606 71.4141C92.1606 71.7767 92.0166 72.1244 91.7602 72.3808C91.5038 72.6372 91.1561 72.7812 90.7934 72.7812Z" fill="#E48E66"/>
<path d="M90.7934 85.3047H82.2056C81.843 85.3047 81.4952 85.1606 81.2388 84.9042C80.9824 84.6478 80.8384 84.3001 80.8384 83.9375C80.8384 83.5749 80.9824 83.2271 81.2388 82.9707C81.4952 82.7144 81.843 82.5703 82.2056 82.5703H90.7934C91.1561 82.5703 91.5038 82.7144 91.7602 82.9707C92.0166 83.2271 92.1606 83.5749 92.1606 83.9375C92.1606 84.3001 92.0166 84.6478 91.7602 84.9042C91.5038 85.1606 91.1561 85.3047 90.7934 85.3047Z" fill="#E48E66"/>
</svg>
