<svg width="71" height="71" viewBox="0 0 71 71" fill="none" xmlns="http://www.w3.org/2000/svg">
<g clip-path="url(#clip0)">
<path d="M66.094 36.7729C65.8124 36.1967 65.8124 35.5357 66.094 34.9596L68.7048 29.6187C70.1584 26.6449 69.0067 23.1005 66.0828 21.549L60.8316 18.7629C60.2651 18.4623 59.8765 17.9276 59.7658 17.2961L58.7387 11.4406C58.1668 8.18024 55.1508 5.99028 51.8744 6.45321L45.9882 7.28582C45.3533 7.3762 44.7248 7.17139 44.2638 6.72542L39.9912 2.59228C37.6122 0.290624 33.8851 0.29076 31.5063 2.59228L27.2336 6.72555C26.7726 7.17139 26.1442 7.37579 25.5092 7.28596L19.623 6.45335C16.3467 5.99083 13.3305 8.18051 12.7587 11.4407L11.7316 17.2961C11.6209 17.9277 11.2323 18.4624 10.6659 18.7629L5.41454 21.5493C2.49054 23.1005 1.33883 26.645 2.79256 29.6189L5.40333 34.9596C5.68497 35.5357 5.68497 36.1967 5.40333 36.7729L2.79256 42.1138C1.33896 45.0875 2.49068 48.632 5.41454 50.1834L10.6658 52.9695C11.2323 53.2701 11.6209 53.8048 11.7316 54.4363L12.7587 60.2919C13.3305 63.5522 16.3464 65.7416 19.623 65.2792L25.5092 64.4466C26.1445 64.3566 26.7727 64.5612 27.2336 65.007L31.5062 69.1401C32.6959 70.2912 34.222 70.8665 35.7486 70.8663C37.2749 70.8662 38.8018 70.2909 39.9909 69.1403L44.2637 65.007C44.7247 64.5612 45.3528 64.3568 45.9881 64.4466L51.8742 65.2792C52.1684 65.3208 52.4601 65.341 52.7485 65.341C55.6728 65.3407 58.2181 63.2593 58.7387 60.292L59.7658 54.4366C59.8765 53.805 60.2651 53.2703 60.8315 52.9698L66.0828 50.1834C69.0068 48.6322 70.1586 45.0877 68.7048 42.1138L66.094 36.7729Z" fill="#E51D13"/>
<path d="M68.7048 29.6177C70.1584 26.6439 69.0067 23.0995 66.0828 21.548L60.8316 18.762C60.265 18.4613 59.8765 17.9266 59.7657 17.2951L58.7387 11.4396C58.1668 8.17929 55.1508 5.98934 51.8744 6.45227L45.9882 7.28488C45.3533 7.37525 44.7248 7.17045 44.2638 6.72447L39.9912 2.59133C38.8015 1.44044 37.275 0.86499 35.7485 0.86499V70.8649C37.2749 70.8647 38.8017 70.2894 39.9909 69.1388L44.2636 65.0055C44.7247 64.5597 45.3527 64.3553 45.9881 64.4451L51.8742 65.2777C52.1684 65.3193 52.4601 65.3395 52.7485 65.3395C55.6728 65.3392 58.2181 63.2578 58.7387 60.2905L59.7657 54.4351C59.8765 53.8035 60.265 53.2688 60.8315 52.9683L66.0828 50.1819C69.0068 48.6307 70.1585 45.0862 68.7048 42.1123L66.094 36.7716C65.8124 36.1955 65.8124 35.5345 66.094 34.9583L68.7048 29.6177Z" fill="#B50400"/>
<path d="M26.3281 25.7727C25.2133 25.7727 24.3095 26.6765 24.3095 27.7913V35.3895L20.0592 26.8886C19.6405 26.0512 18.7007 25.6115 17.7898 25.8267C16.8785 26.0419 16.2349 26.8551 16.2349 27.7913V43.9405C16.2349 45.0553 17.1387 45.9592 18.2535 45.9592C19.3683 45.9592 20.2722 45.0553 20.2722 43.9405V36.3424L24.5225 44.8433C24.8701 45.5383 25.5763 45.9594 26.3276 45.9594C26.4814 45.9593 26.637 45.9417 26.7919 45.9052C27.7031 45.69 28.3468 44.8768 28.3468 43.9405V27.7913C28.3468 26.6765 27.4431 25.7727 26.3281 25.7727Z" fill="#FDC377"/>
<path d="M39.7859 29.81C40.9007 29.81 41.8045 28.9062 41.8045 27.7914C41.8045 26.6766 40.9007 25.7727 39.7859 25.7727H31.7113C30.5965 25.7727 29.6926 26.6766 29.6926 27.7914V43.9405C29.6926 45.0553 30.5965 45.9592 31.7113 45.9592H39.7859C40.9007 45.9592 41.8045 45.0553 41.8045 43.9405C41.8045 42.8257 40.9007 41.9219 39.7859 41.9219H33.7299V37.8846H38.4401C39.5549 37.8846 40.4588 36.9807 40.4588 35.8659C40.4588 34.7511 39.5549 33.8473 38.4401 33.8473H33.7299V29.81H39.7859Z" fill="#FDC377"/>
<path d="M40.4587 35.8658C40.4587 34.751 39.5548 33.8472 38.44 33.8472H35.7484V37.8845H38.44C39.5549 37.8845 40.4587 36.9807 40.4587 35.8658Z" fill="#E5AB00"/>
<path d="M39.7867 25.7726H35.7494V29.8099H39.7867C40.9015 29.8099 41.8053 28.906 41.8053 27.7912C41.8053 26.6764 40.9016 25.7726 39.7867 25.7726Z" fill="#E5AB00"/>
<path d="M41.8053 43.9404C41.8053 42.8256 40.9015 41.9218 39.7867 41.9218H35.7494V45.959H39.7867C40.9016 45.9592 41.8053 45.0555 41.8053 43.9404Z" fill="#E5AB00"/>
<path d="M53.2434 25.7726C52.1286 25.7726 51.2247 26.6764 51.2247 27.7912V35.3894L51.0117 34.9632C50.6698 34.2793 49.9708 33.8473 49.2061 33.8473C48.4414 33.8473 47.7425 34.2793 47.4005 34.9632L47.1874 35.3894V27.7912C47.1874 26.6764 46.2836 25.7726 45.1688 25.7726C44.054 25.7726 43.1501 26.6764 43.1501 27.7912V43.9404C43.1501 44.8767 43.7938 45.6899 44.705 45.905C45.6165 46.1204 46.5557 45.6807 46.9744 44.8432L49.2061 40.3796L51.4377 44.8432C51.7854 45.5382 52.4916 45.9593 53.2428 45.9593C53.3967 45.9592 53.5522 45.9415 53.7071 45.905C54.6184 45.6899 55.262 44.8767 55.262 43.9404V27.7912C55.262 26.6764 54.3583 25.7726 53.2434 25.7726Z" fill="#E5AB00"/>
</g>
<defs>
<clipPath id="clip0">
<rect width="70" height="70" fill="white" transform="translate(0.748779 0.865967)"/>
</clipPath>
</defs>
</svg>
