<svg width="67" height="67" viewBox="0 0 67 67" fill="none" xmlns="http://www.w3.org/2000/svg">
<g clip-path="url(#clip0)">
<path d="M25.5661 63.8295L45.193 55.091C47.8986 53.8864 49.1197 50.7052 47.9151 47.9996L37.5878 24.8041C37.4589 24.5146 37.2396 24.2747 36.9627 24.1204L24.1671 16.9896C23.7643 16.7652 23.2794 16.7434 22.8582 16.931L12.1526 21.6974C11.7313 21.885 11.423 22.2598 11.3203 22.7093L8.05756 36.9898C7.98702 37.2988 8.01851 37.6224 8.14741 37.9119L18.4747 61.1073C19.6793 63.8129 22.8605 65.0341 25.5661 63.8295Z" fill="#FC7948"/>
<path d="M8.05756 36.9898L11.3203 22.7094C11.423 22.2599 11.7313 21.885 12.1526 21.6974L17.5054 19.3142L35.3795 59.4603L25.5661 63.8295C22.8605 65.0341 19.6793 63.8129 18.4747 61.1074L8.14741 37.9119C8.01851 37.6224 7.98702 37.2988 8.05756 36.9898Z" fill="#FC2323"/>
<path d="M48.2754 46.3211L55.9747 26.2637C57.0361 23.4987 55.6502 20.3859 52.8852 19.3245L29.181 10.2254C28.8851 10.1118 28.5604 10.0973 28.2555 10.1839L14.1654 14.1896C13.7218 14.3156 13.3636 14.6432 13.1984 15.0737L8.99874 26.0141C8.83348 26.4446 8.88061 26.9276 9.12577 27.3181L16.9164 39.723C17.085 39.9914 17.3361 40.198 17.632 40.3115L41.3362 49.4107C44.1011 50.4719 47.2141 49.086 48.2754 46.3211Z" fill="#FEA756"/>
<path d="M16.9162 39.7234L9.12554 27.3185C8.88029 26.9281 8.83326 26.445 8.99851 26.0145L11.0983 20.5443L52.1247 36.2928L48.2751 46.3216C47.2137 49.0866 44.1009 50.4725 41.3359 49.4111L17.6317 40.3119C17.3358 40.1983 17.0848 39.9918 16.9162 39.7234Z" fill="#FD5B38"/>
<path d="M43.9922 38.4029C44.1848 37.9012 44.0931 37.3119 43.7059 36.8884L28.9715 20.772C28.4257 20.1749 27.4991 20.1334 26.9021 20.6793C26.3047 21.2252 26.2634 22.1516 26.8093 22.7488L41.5436 38.8651C42.0894 39.4622 43.016 39.5038 43.6131 38.9579C43.7867 38.7992 43.9133 38.6084 43.9922 38.4029Z" fill="white"/>
<path d="M22.9524 31.8942C23.8212 29.6309 26.3693 28.4965 28.6326 29.3653C30.8959 30.2341 32.0303 32.7821 31.1615 35.0454C30.2927 37.3087 27.7447 38.4432 25.4814 37.5744C23.2181 36.7056 22.0836 34.1574 22.9524 31.8942ZM26.5318 34.838C27.2862 35.1276 28.1356 34.7494 28.4252 33.995C28.7148 33.2406 28.3366 32.3912 27.5822 32.1016C26.8278 31.812 25.9784 32.1902 25.6888 32.9446C25.3992 33.699 25.7773 34.5484 26.5318 34.838Z" fill="white"/>
<path d="M39.3538 24.5919C40.2226 22.3285 42.7706 21.1941 45.0339 22.0629C47.2973 22.9317 48.4317 25.4797 47.5629 27.743C46.6941 30.0063 44.1461 31.1408 41.8828 30.272C39.6195 29.4032 38.485 26.8551 39.3538 24.5919ZM42.9332 27.5356C43.6876 27.8252 44.537 27.447 44.8265 26.6926C45.1161 25.9382 44.7379 25.0888 43.9836 24.7993C43.2292 24.5097 42.3798 24.8879 42.0902 25.6422C41.8006 26.3966 42.1787 27.2459 42.9332 27.5356Z" fill="white"/>
<path d="M41.5439 38.865L32.2 28.6446L38.3157 30.9922L43.7061 36.8882C44.0934 37.3117 44.185 37.901 43.9925 38.4027C43.9136 38.6082 43.787 38.799 43.6135 38.9576C43.0164 39.5037 42.0897 39.4621 41.5439 38.865Z" fill="#EBEBEB"/>
<path d="M5.62759 18.4447C5.91747 17.6895 6.76482 17.3122 7.52007 17.6021L18.4604 21.8018L17.4105 24.5368L6.47018 20.3372C5.71483 20.0474 5.33753 19.1999 5.62759 18.4447Z" fill="#00429B"/>
<path d="M6.47041 20.3369C5.71516 20.047 5.3378 19.1997 5.62782 18.4444L17.9357 23.1689L17.4107 24.5365L6.47041 20.3369Z" fill="#002659"/>
<path d="M17.4816 27.2423C17.8241 27.0898 18.1084 26.8066 18.2533 26.429L20.3531 20.9587C20.6431 20.2035 20.2658 19.3562 19.5105 19.0662C18.7554 18.7763 17.908 19.1536 17.6181 19.9088L15.5182 25.3791C15.2282 26.1343 15.6055 26.9816 16.3608 27.2716C16.7385 27.4165 17.1391 27.3947 17.4816 27.2423Z" fill="white"/>
<path d="M15.5181 25.3791L16.568 22.644L19.303 23.6939L18.2531 26.4289C18.1082 26.8066 17.8239 27.0898 17.4815 27.2422C17.139 27.3947 16.7383 27.4165 16.3607 27.2715C15.6054 26.9817 15.2281 26.1343 15.5181 25.3791Z" fill="#EBEBEB"/>
</g>
<defs>
<clipPath id="clip0">
<rect width="50" height="50" fill="white" transform="matrix(-0.913545 0.406737 0.406737 0.913545 46 0)"/>
</clipPath>
</defs>
</svg>
