<svg width="300" height="300" viewBox="0 0 300 300" fill="none" xmlns="http://www.w3.org/2000/svg">
<g clip-path="url(#clip0)">
<path d="M203.005 300.001H66.071C61.2171 300.001 57.282 296.065 57.282 291.212C57.282 286.358 61.2171 282.422 66.071 282.422H66.9886C83.1734 282.422 96.3406 269.255 96.3406 253.071V247.099C96.3406 242.245 100.276 238.31 105.13 238.31H163.947C168.801 238.31 172.736 242.245 172.736 247.099V253.071C172.736 269.256 185.903 282.422 202.087 282.422H203.005C207.859 282.422 211.794 286.358 211.794 291.212C211.794 296.065 207.859 300.001 203.005 300.001Z" fill="#00429D"/>
<path d="M203.004 282.422H202.087C185.902 282.422 172.735 269.255 172.735 253.071V247.099C172.735 242.245 168.8 238.31 163.946 238.31H134.538V300.001H203.004C207.858 300.001 211.793 296.065 211.793 291.212C211.793 286.358 207.859 282.422 203.004 282.422Z" fill="#00347B"/>
<path fill-rule="evenodd" clip-rule="evenodd" d="M8.78906 65.0698H260.288V253.126H8.78906V65.0698Z" fill="#F6EFEA"/>
<path fill-rule="evenodd" clip-rule="evenodd" d="M134.538 65.0698H260.287V253.126H134.538V65.0698Z" fill="#EEE1DC"/>
<path d="M260.288 261.915H8.78906C3.93516 261.915 0 257.98 0 253.126V65.0698C0 60.2159 3.93516 56.2808 8.78906 56.2808H260.288C265.142 56.2808 269.077 60.2159 269.077 65.0698V253.126C269.077 257.98 265.142 261.915 260.288 261.915ZM17.5781 244.337H251.499V73.8589H17.5781V244.337Z" fill="#00429D"/>
<path d="M260.287 56.2808H134.538V73.8589H251.499V244.337H134.538V261.915H260.288C265.142 261.915 269.077 257.98 269.077 253.126V65.0698C269.076 60.2159 265.141 56.2808 260.287 56.2808Z" fill="#00347B"/>
<path d="M221.396 226.758H47.6807C42.8268 226.758 38.8916 222.823 38.8916 217.969V45.7031C38.8916 40.8492 42.8268 36.9141 47.6807 36.9141H221.396C226.25 36.9141 230.186 40.8492 230.186 45.7031V217.969C230.186 222.823 226.25 226.758 221.396 226.758Z" fill="#FFF4F4"/>
<path d="M221.396 36.9141H134.538V226.758H221.396C226.25 226.758 230.185 222.823 230.185 217.969V45.7031C230.185 40.8492 226.25 36.9141 221.396 36.9141Z" fill="#F6EFEA"/>
<path d="M143.276 165.379C141.018 165.379 138.806 164.495 137.156 162.844C134.808 160.497 134.01 157.013 135.102 153.878L154.073 99.414C155.052 96.6009 157.41 94.4898 160.314 93.8248C163.217 93.1603 166.258 94.0351 168.365 96.1416L203.859 131.635C205.965 133.741 206.84 136.783 206.175 139.687C205.51 142.591 203.399 144.948 200.586 145.927L146.122 164.898C145.192 165.221 144.23 165.379 143.276 165.379Z" fill="#F5B500"/>
<path d="M125.75 89.6485H77.1174C72.2635 89.6485 68.3284 85.7133 68.3284 80.8594C68.3284 76.0055 72.2635 72.0703 77.1174 72.0703H125.75C130.604 72.0703 134.539 76.0055 134.539 80.8594C134.539 85.7133 130.604 89.6485 125.75 89.6485Z" fill="#4793FF"/>
<path d="M107.696 124.805H77.1167C72.2628 124.805 68.3276 120.87 68.3276 116.016C68.3276 111.162 72.2628 107.227 77.1167 107.227H107.696C112.55 107.227 116.485 111.162 116.485 116.016C116.485 120.87 112.55 124.805 107.696 124.805Z" fill="#4793FF"/>
<path d="M100.353 159.961H77.1167C72.2628 159.961 68.3276 156.026 68.3276 151.172C68.3276 146.318 72.2628 142.383 77.1167 142.383H100.353C105.207 142.383 109.142 146.318 109.142 151.172C109.142 156.026 105.207 159.961 100.353 159.961Z" fill="#4793FF"/>
<path d="M283.413 52.0793L247.92 16.5855C246.297 14.9625 244.096 14.0508 241.8 14.0508C239.505 14.0508 237.304 14.9625 235.681 16.5855L155.613 96.7014L203.19 144.473L283.413 64.3184C286.793 60.9387 286.793 55.459 283.413 52.0793Z" fill="#6CC551"/>
<path d="M300.001 33.7219C300.001 24.6867 296.5 16.2105 290.145 9.85547C283.79 3.50039 275.314 0 266.279 0C257.244 0 248.769 3.4998 242.414 9.85488L229.623 22.6459L277.355 70.3781L290.146 57.5877C296.501 51.2326 300.001 42.757 300.001 33.7219Z" fill="#558E30"/>
<path d="M260.288 261.914H8.78906C3.93516 261.914 0 257.979 0 253.125V209.18H269.077V253.125C269.077 257.979 265.142 261.914 260.288 261.914Z" fill="#4793FF"/>
<path d="M134.538 209.18V261.914H260.288C265.142 261.914 269.077 257.979 269.077 253.125V209.18H134.538Z" fill="#525CDD"/>
</g>
<defs>
<clipPath id="clip0">
<rect width="300" height="300" fill="white"/>
</clipPath>
</defs>
</svg>
