<svg width="120" height="120" viewBox="10 10 120 120" fill="none" xmlns="http://www.w3.org/2000/svg">
<path d="M128.567 81.433C134.881 49.0873 113.779 17.7472 81.433 11.433C49.0873 5.11871 17.7472 26.2214 11.433 58.567C5.11871 90.9127 26.2214 122.253 58.567 128.567C90.9127 134.881 122.253 113.779 128.567 81.433Z" fill="#3A8789"/>
<path d="M40.2793 98.3367L81.7087 127.369C106.648 124.089 129.788 99.2973 129.788 73.4731C129.788 69.9848 129.968 68.8489 129.291 65.5168L90.0064 39.6587L40.2793 98.3367Z" fill="#1D5656"/>
<path d="M103.215 87.0611C103.215 87.0611 100.56 92.2676 103.528 98.0989H42.039L41.7266 86.2802L103.215 87.0611Z" fill="#E7E6E6"/>
<path d="M103.059 87.6338H41.7266V88.1024H103.059V87.6338Z" fill="#D0D1D1"/>
<path d="M103.059 88.623H41.7266V89.0916H103.059V88.623Z" fill="#D0D1D1"/>
<path d="M103.059 90.0808H41.7266V90.5494H103.059V90.0808Z" fill="#D0D1D1"/>
<path d="M103.059 91.4866H41.7266V91.9552H103.059V91.4866Z" fill="#D0D1D1"/>
<path d="M103.059 92.4758H41.7266V92.9444H103.059V92.4758Z" fill="#D0D1D1"/>
<path d="M103.059 93.4131H41.7266V93.8817H103.059V93.4131Z" fill="#D0D1D1"/>
<path d="M103.059 94.8708H41.7266V95.3394H103.059V94.8708Z" fill="#D0D1D1"/>
<path d="M103.059 96.3287H41.7266V96.7973H103.059V96.3287Z" fill="#D0D1D1"/>
<path d="M42.5594 91.1742C42.5594 90.7056 42.5594 90.185 42.5594 89.6123C42.5594 86.8528 44.7982 87.0611 44.7982 87.0611H104.413V83.8851H44.2255C42.9759 83.8851 42.0908 84.2496 41.4661 84.7702C41.414 84.8223 41.3619 84.8744 41.3099 84.9264C41.2578 84.9785 41.2578 84.9785 41.2057 85.0306C40.0603 86.176 35.6348 91.3825 40.7372 98.7757C41.3099 99.7129 42.2991 100.546 44.2255 100.546H104.465V97.3699H44.8503C44.8503 97.3699 42.6115 97.5782 42.6115 94.8188C42.6115 94.246 42.6115 93.7254 42.6115 93.2568C42.5594 93.2047 42.5594 92.3717 42.5594 91.1742Z" fill="#FF4200"/>
<path d="M100.612 56.3428C100.612 56.3428 97.9562 61.5493 100.924 67.3806H39.5394L39.2271 55.6139L100.612 56.3428Z" fill="#E7E6E6"/>
<path d="M100.507 56.9677H39.2271V57.4362H100.507V56.9677Z" fill="#D0D1D1"/>
<path d="M100.507 57.9569H39.2271V58.4255H100.507V57.9569Z" fill="#D0D1D1"/>
<path d="M100.507 59.3625H39.2271V59.8311H100.507V59.3625Z" fill="#D0D1D1"/>
<path d="M100.507 60.8203H39.2271V61.2889H100.507V60.8203Z" fill="#D0D1D1"/>
<path d="M100.507 61.8096H39.2271V62.2782H100.507V61.8096Z" fill="#D0D1D1"/>
<path d="M100.507 62.7468H39.2271V63.2154H100.507V62.7468Z" fill="#D0D1D1"/>
<path d="M100.507 64.2046H39.2271V64.6732H100.507V64.2046Z" fill="#D0D1D1"/>
<path d="M100.507 65.6624H39.2271V66.1309H100.507V65.6624Z" fill="#D0D1D1"/>
<path d="M40.0601 60.508C40.0601 60.0394 40.0601 59.5187 40.0601 58.946C40.0601 56.1866 42.2989 56.3948 42.2989 56.3948H101.861V53.2189H41.6741C40.4245 53.2189 39.5394 53.5833 38.9146 54.104C38.8626 54.156 38.8105 54.2081 38.7585 54.2602C38.7064 54.3122 38.7064 54.3122 38.6543 54.3643C37.5089 55.5097 33.1354 60.7162 38.1857 68.1094C38.7585 69.0466 39.7477 69.8796 41.6741 69.8796H101.809V66.7037H42.2989C42.2989 66.7037 40.0601 66.9119 40.0601 64.1525C40.0601 63.5798 40.0601 63.0591 40.0601 62.5906C40.0601 62.4864 40.0601 61.7054 40.0601 60.508Z" fill="#EF0F44"/>
<path d="M104.829 69.8276H37.9775V83.8331H104.829V69.8276Z" fill="#F49AB8"/>
<path d="M59.2205 73.2118H42.0391V80.9174H59.2205V73.2118Z" fill="#EF6C9E"/>
<path opacity="0.4" d="M104.829 76.8563H37.9775V83.8851H104.829V76.8563Z" fill="white"/>
<path d="M93.7909 39.1614H49.0151V53.1668H93.7909V39.1614Z" fill="#83E2BE"/>
<path d="M89.5219 39.1614H88.3765V53.1668H89.5219V39.1614Z" fill="#22AF7C"/>
<path d="M84.5234 39.1614H83.3779V53.1668H84.5234V39.1614Z" fill="#22AF7C"/>
<path d="M61.1464 41.8167H52.2954V50.6677H61.1464V41.8167Z" fill="#22AF7C"/>
<path opacity="0.4" d="M93.7909 46.1901H49.0151V53.2188H93.7909V46.1901Z" fill="#FFFEFD"/>
</svg>
