<svg width="50" height="50" viewBox="0 0 50 50" fill="none" xmlns="http://www.w3.org/2000/svg">
<path d="M22.0703 0C19.6471 0 17.6758 1.97129 17.6758 4.39453V5.95703L20.6055 7.42188H22.0703H23.5352L26.4648 5.95703V4.39453C26.4648 1.97129 24.4936 0 22.0703 0Z" fill="#FF6A4D"/>
<path d="M26.4648 5.95703V4.39453C26.4648 1.97129 24.4936 0 22.0703 0V7.42188H23.5352L26.4648 5.95703Z" fill="#E64D2E"/>
<path d="M0 44.1406C0.678809 47.4836 3.78086 50 7.32422 50C10.8676 50 14.0673 47.4836 14.7461 44.1406L11.5637 42.6758H2.03359L0 44.1406Z" fill="#474F54"/>
<path d="M7.32422 47.0703C4.90098 47.0703 2.92969 45.099 2.92969 42.6758C2.92969 40.2525 4.90098 38.2812 7.32422 38.2812C9.74746 38.2812 11.8164 40.2525 11.8164 42.6758C11.8164 45.099 9.74746 47.0703 7.32422 47.0703Z" fill="#F2F9FF"/>
<path d="M14.7461 17.7734H5.85938L2.92969 20.7031V29.4922L5.85938 30.957H14.7461L19.1406 29.4922V21.582L17.6758 20.7031L14.7461 17.7734Z" fill="#FF9100"/>
<path d="M2.92969 14.8438V20.7031H17.6758L19.1406 19.9448L17.6758 19.2383V14.8438H2.92969Z" fill="#FABE2C"/>
<path d="M23.5352 44.1406H0V42.6758C0 37.0127 4.68848 32.4219 10.3516 32.4219L12.793 30.957H26.4648V41.6992L23.5352 44.1406Z" fill="#FF6A4D"/>
<path d="M0 29.4922H20.6055V32.4219H0V29.4922Z" fill="#32393F"/>
<path d="M30.8594 36.9042V42.412L29.3945 44.1406H23.5352V32.4219H20.6055C18.9941 32.4219 17.6758 31.1035 17.6758 29.4922V22.168H26.4648V26.5625C28.0762 26.5625 29.3945 27.8809 29.3945 29.4922V35.3516L30.8594 36.9042Z" fill="#575F64"/>
<path d="M30.8594 36.9042V42.412L29.3945 44.1406H23.5352V32.4219H22.0703V22.168H26.4648V26.5625C28.0762 26.5625 29.3945 27.8809 29.3945 29.4922V35.3516L30.8594 36.9042Z" fill="#474F54"/>
<path d="M26.4648 20.7031V19.2383C26.4648 16.815 24.4936 14.8438 22.0703 14.8438C19.6471 14.8438 17.6758 16.815 17.6758 19.2383V22.168C17.6758 24.595 19.6433 26.5625 22.0703 26.5625H33.8867C36.3138 26.5625 38.2812 24.595 38.2812 22.168V20.7031H26.4648Z" fill="#FF6A4D"/>
<path d="M38.2812 22.168V20.7031H26.4648V19.2383C26.4648 16.815 24.4936 14.8438 22.0703 14.8438V26.5625H33.8867C36.3138 26.5625 38.2812 24.595 38.2812 22.168Z" fill="#E64D2E"/>
<path d="M23.5352 7.42188H22.0703H20.6055L17.6758 8.88672V10.3516C17.6758 12.7748 19.6471 14.8438 22.0703 14.8438C24.4936 14.8438 26.4648 12.7748 26.4648 10.3516V8.88672L23.5352 7.42188Z" fill="#FFE1BA"/>
<path d="M26.4648 10.3516V8.88672L23.5352 7.42188H22.0703V14.8438C24.4936 14.8438 26.4648 12.7748 26.4648 10.3516Z" fill="#FFBFAB"/>
<path d="M22.0703 5.95703H17.6758V8.88672H22.0703H29.3945V5.95703H22.0703Z" fill="#474F54"/>
<path d="M22.0703 5.95703H29.3945V8.88672H22.0703V5.95703Z" fill="#32393F"/>
<path d="M42.3182 29.8197C42.1565 28.6796 41.836 26.4337 41.1967 21.9604L35.3516 19.2383V30.957C35.3516 33.2679 33.3608 35.3516 30.8594 35.3516H29.3945V44.1406H32.3242H47.0703L50 42.6758V39.7461C50 35.0598 46.7671 30.9742 42.3182 29.8197Z" fill="#E64D2E"/>
<path d="M44.1406 23.6328H39.7461C37.3229 23.6328 35.3516 21.6615 35.3516 19.2383C35.3516 16.815 37.3229 14.8438 39.7461 14.8438H44.1406V23.6328Z" fill="#FF6A4D"/>
<path d="M43.116 35.3961L42.69 37.0239L40.2144 35.8077C37.3892 36.8244 35.3516 39.5049 35.3516 42.6758C35.3516 46.7142 38.6374 50 42.6758 50C46.7142 50 50 46.7142 50 42.6758C50 38.7882 46.946 35.6289 43.116 35.3961Z" fill="#32393F"/>
<path d="M42.6758 38.2812C40.2525 38.2812 38.2812 40.2525 38.2812 42.6758C38.2812 45.099 40.2525 47.0703 42.6758 47.0703C45.099 47.0703 47.0703 45.099 47.0703 42.6758C47.0703 40.2525 45.099 38.2812 42.6758 38.2812Z" fill="#DFE7F4"/>
<path d="M44.1268 42.4684L43.1165 35.3961C42.9678 35.3871 42.827 35.3516 42.6762 35.3516C41.8088 35.3516 40.9876 35.5297 40.2148 35.8077L41.2257 42.8832L44.1268 42.4684Z" fill="#C7CFE1"/>
</svg>
