<svg width="50" height="50" viewBox="0 0 50 50" fill="none" xmlns="http://www.w3.org/2000/svg">
<path d="M50 11.8164V30.8594C50 33.2911 48.0372 35.2539 45.6055 35.2539H10.2539C7.82217 35.2539 5.85938 33.2911 5.85938 30.8594V11.8164L8.78906 8.88672H47.0703L50 11.8164Z" fill="#FEA832"/>
<path d="M50 11.8164V30.8594C50 33.2911 48.0372 35.2539 45.6055 35.2539H27.9297V8.88672H47.0703L50 11.8164Z" fill="#FE9923"/>
<path d="M50 7.42188V11.8164H5.85938V7.42188C5.85938 4.99014 7.82217 3.02734 10.2539 3.02734H45.6055C48.0372 3.02734 50 4.99014 50 7.42188Z" fill="#994C0F"/>
<path d="M44.1406 19.1406V20.6055L41.2109 23.5352H2.92969L0 20.6055V19.1406C0 16.7089 1.96279 14.7461 4.39453 14.7461H39.7461C42.1778 14.7461 44.1406 16.7089 44.1406 19.1406Z" fill="#32D736"/>
<path d="M44.1406 19.1406V20.6055L41.2109 23.5352H22.0703V14.7461H39.7461C42.1778 14.7461 44.1406 16.7089 44.1406 19.1406Z" fill="#10BB67"/>
<path d="M50 7.42188V11.8164H27.9297V3.02734H45.6055C48.0372 3.02734 50 4.99014 50 7.42188Z" fill="#713708"/>
<path d="M44.1406 20.6055V26.4648L41.2109 29.3945H2.92969L0 26.4648V20.6055H44.1406Z" fill="#0D70B2"/>
<path d="M44.1406 20.6055V26.4648L41.2109 29.3945H22.0703V20.6055H44.1406Z" fill="#095C92"/>
<path d="M44.1406 26.4648V42.5781C44.1406 45.0099 42.1778 46.9727 39.7461 46.9727H4.39453C1.96279 46.9727 0 45.0099 0 42.5781V26.4648H44.1406Z" fill="#32D736"/>
<path d="M44.1406 26.4648V42.5781C44.1406 45.0099 42.1778 46.9727 39.7461 46.9727H22.0703V26.4648H44.1406Z" fill="#10BB67"/>
<path d="M10.2539 41.1133C7.83066 41.1133 5.85938 39.142 5.85938 36.7188C5.85938 34.2955 7.83066 32.3242 10.2539 32.3242C12.6771 32.3242 14.6484 34.2955 14.6484 36.7188C14.6484 39.142 12.6771 41.1133 10.2539 41.1133Z" fill="#FD003A"/>
<path d="M16.1133 41.1133C13.69 41.1133 11.7188 39.142 11.7188 36.7188C11.7188 34.2955 13.69 32.3242 16.1133 32.3242C18.5365 32.3242 20.5078 34.2955 20.5078 36.7188C20.5078 39.142 18.5365 41.1133 16.1133 41.1133Z" fill="#FEA832"/>
<path d="M36.8164 35.2539H25C24.1903 35.2539 23.5352 34.5987 23.5352 33.7891C23.5352 32.9794 24.1903 32.3242 25 32.3242H36.8164C37.6261 32.3242 38.2812 32.9794 38.2812 33.7891C38.2812 34.5987 37.6261 35.2539 36.8164 35.2539Z" fill="#0D70B2"/>
<path d="M36.8164 41.1133H25C24.1903 41.1133 23.5352 40.4581 23.5352 39.6484C23.5352 38.8388 24.1903 38.1836 25 38.1836H36.8164C37.6261 38.1836 38.2812 38.8388 38.2812 39.6484C38.2812 40.4581 37.6261 41.1133 36.8164 41.1133Z" fill="#0D70B2"/>
</svg>
