<svg width="50" height="50" viewBox="0 0 50 50" fill="none" xmlns="http://www.w3.org/2000/svg">
<path d="M25 0C11.2598 0 0 11.2598 0 25C0 38.7402 11.2598 50 25 50C38.7402 50 50 38.7402 50 25C50 11.2598 38.7402 0 25 0Z" fill="#77DD00"/>
<path d="M50 25C50 38.7402 38.7402 50 25 50V0C38.7402 0 50 11.2598 50 25Z" fill="#66BB00"/>
<path d="M39.2384 20.752L22.0704 37.9198L9.73633 25.6151L13.8967 21.455L22.0704 29.6581L25.0001 26.7284L35.1075 16.6211L39.2384 20.752Z" fill="white"/>
<path d="M39.2383 20.752L25 34.9901V26.7284L35.1074 16.6211L39.2383 20.752Z" fill="#F1F1F1"/>
</svg>
