<svg width="70" height="70" viewBox="0 0 70 70" fill="none" xmlns="http://www.w3.org/2000/svg">
<path d="M35 0L17.5 35L35 70C54.33 70 70 54.33 70 35C70 15.67 54.33 0 35 0Z" fill="#28ABFA"/>
<path d="M0 35C0 54.33 15.67 70 35 70V0C15.67 0 0 15.67 0 35Z" fill="#14CFFF"/>
<path d="M35 8.20312L21.6016 35L35 61.7969C49.7995 61.7969 61.7969 49.7995 61.7969 35C61.7969 20.2005 49.7995 8.20312 35 8.20312Z" fill="#C4F3FF"/>
<path d="M8.20312 35C8.20312 49.7995 20.2005 61.7969 35 61.7969V8.20312C20.2005 8.20312 8.20312 20.2005 8.20312 35Z" fill="white"/>
<path d="M40.8004 37.9L35 32.0996H32.2656L35 37.9L37.9002 40.8003L40.8004 37.9Z" fill="#340D66"/>
<path d="M23.3507 20.4507L20.4504 23.3509L34.9999 37.9004V32.0999L23.3507 20.4507Z" fill="#373E9F"/>
<path d="M46.6978 20.4019L35 32.0995L32.2656 37.8999H35L49.5979 23.3019L46.6978 20.4019Z" fill="#373E9F"/>
<path d="M29.1992 37.9L32.0994 40.8003L34.9996 37.9V32.0996L29.1992 37.9Z" fill="#3857BC"/>
<path d="M37.0508 12.3047H35L33.6328 14.3555L35 16.4062H37.0508V12.3047Z" fill="#340D66"/>
<path d="M32.9492 12.3047H35V16.4062H32.9492V12.3047Z" fill="#373E9F"/>
<path d="M37.0508 53.5938H35L33.6328 55.6445L35 57.6953H37.0508V53.5938Z" fill="#340D66"/>
<path d="M32.9492 53.5938H35V57.6953H32.9492V53.5938Z" fill="#373E9F"/>
<path d="M12.3047 37.0508V32.9492H16.4062V37.0508H12.3047Z" fill="#373E9F"/>
<path d="M53.5938 37.0508V32.9492H57.6953V37.0508H53.5938Z" fill="#340D66"/>
</svg>
