<svg width="32" height="32" viewBox="0 0 32 32" fill="none" xmlns="http://www.w3.org/2000/svg">
<g clip-path="url(#clip0)">
<path d="M21.7111 25.9156L18.878 25.1217C18.4736 25.0084 18.2165 24.6122 18.2778 24.1967L18.7379 21.0772C18.8282 20.465 18.3537 19.9155 17.7349 19.9155C17.3883 19.9155 17.0657 20.0927 16.8796 20.3852L15.0454 23.2683C14.6735 23.8528 13.9125 24.0495 13.3039 23.7185L6.509 20.0227C6.37981 19.9524 6.23506 19.9156 6.088 19.9156C5.3065 19.9156 4.91175 20.8575 5.45981 21.4147L7.82262 23.8168C10.8158 26.8598 14.7064 28.8621 18.9224 29.5293L21.7112 29.9706V25.9156H21.7111Z" fill="#F1D0A5"/>
<path d="M20.3281 25.5824V29.7516L21.7118 29.9706V25.9156L20.3308 25.5287C20.3294 25.5464 20.3281 25.5643 20.3281 25.5824Z" fill="#F1B986"/>
<path d="M24.9086 30.8025H22.3691C22.0056 30.8025 21.7109 30.5078 21.7109 30.1443V25.5824C21.7109 25.2189 22.0056 24.9242 22.3691 24.9242H24.9086V30.8025H24.9086Z" fill="#F9F6F6"/>
<path d="M23.5254 24.9242H24.9091V30.8025H23.5254V24.9242Z" fill="#DDDAEC"/>
<path d="M31.6351 31.9989H25.1619C25.0218 31.9989 24.9082 31.8853 24.9082 31.7452V23.9815C24.9082 23.8413 25.0218 23.7278 25.1619 23.7278H31.635C31.8362 23.7278 31.9993 23.8909 31.9993 24.0921V31.6346C31.9994 31.8358 31.8363 31.9989 31.6351 31.9989Z" fill="#80B4FB"/>
<path d="M30.6172 23.7278V31.9989H31.6366C31.8378 31.9989 32.0009 31.8358 32.0009 31.6346V24.0921C32.0009 23.8909 31.8378 23.7278 31.6366 23.7278H30.6172Z" fill="#61A2F9"/>
<path d="M27.0724 28.9206C26.8058 28.9206 26.5898 28.7046 26.5898 28.4381V27.289C26.5898 27.0224 26.8058 26.8064 27.0724 26.8064C27.339 26.8064 27.555 27.0224 27.555 27.289V28.4381C27.5549 28.7046 27.3389 28.9206 27.0724 28.9206Z" fill="#F9F6F6"/>
<path d="M21.2523 19.1668C21.2523 19.5803 20.9171 19.9156 20.5035 19.9156H0.748812C0.33525 19.9155 0 19.5803 0 19.1668V0.749911C0 0.336349 0.33525 0.00109863 0.748812 0.00109863H20.5035C20.9171 0.00109863 21.2523 0.336349 21.2523 0.749911V19.1668Z" fill="#FFD064"/>
<path d="M18.9922 0.00109863C19.3989 0.00109863 19.7287 0.330849 19.7287 0.737599V19.9155H20.5028C20.9164 19.9155 21.2516 19.5803 21.2516 19.1667V0.749911C21.2516 0.336349 20.9164 0.00109863 20.5028 0.00109863H18.9922Z" fill="#FFC250"/>
<path d="M16.172 16.8446C15.647 17.3556 14.8071 17.3443 14.2961 16.8192L13.968 16.4821C13.9451 16.4586 13.9456 16.4211 13.9691 16.3982L16.1342 14.2908C16.1457 14.2796 16.1521 14.2643 16.1521 14.2482C16.1521 14.2321 16.1456 14.2168 16.1342 14.2056L13.9691 12.0982C13.9456 12.0753 13.9451 12.0378 13.968 12.0143L14.2961 11.6772C14.8071 11.1522 15.647 11.1408 16.172 11.6518L18.145 13.5723C18.2473 13.6718 18.3306 13.7909 18.3794 13.925C18.5092 14.2814 18.4124 14.6638 18.1561 14.9133L16.172 16.8446Z" fill="#F9F6F6"/>
<path d="M11.934 3.49685H9.3157C9.07339 3.49685 8.87695 3.30041 8.87695 3.0581V0.00109863H12.3727V3.0581C12.3727 3.30041 12.1763 3.49685 11.934 3.49685Z" fill="#26457D"/>
<path d="M11.1009 0.00109863V3.0581C11.1009 3.30041 10.9044 3.49685 10.6621 3.49685H11.9366C12.1789 3.49685 12.3754 3.30041 12.3754 3.0581V0.00109863H11.1009Z" fill="#21386B"/>
<path d="M4.11537 16.0317C3.84881 16.0317 3.63281 15.8157 3.63281 15.5491V12.2733C3.63281 12.0068 3.84881 11.7908 4.11537 11.7908C4.38193 11.7908 4.59793 12.0068 4.59793 12.2733V15.5491C4.59787 15.8157 4.38187 16.0317 4.11537 16.0317Z" fill="#26457D"/>
<path d="M5.49625 13.5931C5.37375 13.5931 5.25118 13.5467 5.15712 13.4538L4.11443 12.4241L3.07168 13.4538C2.88193 13.6412 2.57643 13.6392 2.38924 13.4496C2.20193 13.26 2.20387 12.9545 2.39343 12.7672L3.77525 11.4025C3.96325 11.2169 4.2655 11.2169 4.45343 11.4025L5.83525 12.7672C6.02481 12.9545 6.02675 13.26 5.83943 13.4496C5.74518 13.5452 5.62068 13.5931 5.49625 13.5931Z" fill="#26457D"/>
<path d="M8.54116 16.0317C8.27459 16.0317 8.05859 15.8157 8.05859 15.5491V12.2733C8.05859 12.0068 8.27459 11.7908 8.54116 11.7908C8.80772 11.7908 9.02372 12.0068 9.02372 12.2733V15.5491C9.02372 15.8157 8.80766 16.0317 8.54116 16.0317Z" fill="#26457D"/>
<path d="M7.16029 13.5931C7.03573 13.5931 6.91135 13.5452 6.81698 13.4496C6.62967 13.26 6.6316 12.9545 6.82117 12.7672L8.20298 11.4025C8.3911 11.2169 8.69335 11.2169 8.88117 11.4025L10.2629 12.7672C10.4525 12.9545 10.4544 13.26 10.2671 13.4496C10.0798 13.6392 9.77423 13.6411 9.58467 13.4538L8.54204 12.4241L7.49935 13.4538C7.40529 13.5467 7.28273 13.5931 7.16029 13.5931Z" fill="#26457D"/>
</g>
<defs>
<clipPath id="clip0">
<rect width="32" height="32" fill="white"/>
</clipPath>
</defs>
</svg>
