<svg width="100" height="100" viewBox="0 0 100 100" fill="none" xmlns="http://www.w3.org/2000/svg">
<g clip-path="url(#clip0)">
<path d="M89.2578 100H46.2891C40.3658 100 35.5469 95.1811 35.5469 89.2578V38.4766C35.5469 37.8428 35.7525 37.226 36.1328 36.7188L53.7109 13.2812C54.2643 12.5436 55.1324 12.1094 56.0547 12.1094H79.4922C80.4145 12.1094 81.2826 12.5436 81.8359 13.2812L99.4141 36.7188C99.7943 37.226 100 37.8428 100 38.4766V89.2578C100 95.1811 95.1811 100 89.2578 100Z" fill="#FF8659"/>
<path d="M99.4141 36.7188L81.8359 13.2812C81.2826 12.5436 80.4145 12.1094 79.4922 12.1094H67.7734V100H89.2578C95.1811 100 100 95.1811 100 89.2578V38.4766C100 37.8428 99.7943 37.226 99.4141 36.7188Z" fill="#FF6326"/>
<path d="M33.5242 86.4844L3.14062 56.1008C-1.04785 51.9123 -1.04785 45.0975 3.14062 40.909L39.0484 5.00137C39.4967 4.55313 40.0781 4.2625 40.7057 4.17266L69.7082 0.0294945C70.6211 -0.100974 71.542 0.206057 72.1941 0.858205L88.767 17.4311C89.4191 18.0832 89.726 19.0041 89.5957 19.917L85.4525 48.9193C85.3629 49.5469 85.0721 50.1285 84.6238 50.5766L48.716 86.4844C44.5275 90.6727 37.7125 90.6727 33.5242 86.4844Z" fill="#FFF16B"/>
<path d="M85.4528 48.9196L89.5959 19.9173C89.7264 19.0044 89.4193 18.0835 88.7672 17.4313L80.4809 9.14502L18.3328 71.2929L33.5246 86.4847C37.7131 90.6731 44.5279 90.6731 48.7164 86.4847L84.6242 50.5769C85.0723 50.1286 85.3631 49.5472 85.4528 48.9196Z" fill="#FFB454"/>
<path d="M34.9074 68.5328C34.1474 67.7728 33.8355 66.6217 34.1986 65.5328L48.0093 24.1008C48.5209 22.5658 50.18 21.7361 51.715 22.2478C53.2505 22.7594 54.0795 24.4183 53.5679 25.9535L39.7572 67.3855C39.2457 68.9205 37.5865 69.7502 36.0515 69.2385C35.6052 69.0898 35.2187 68.8441 34.9074 68.5328Z" fill="#FF7038"/>
<path d="M68.0543 39.5255C64.6258 36.097 59.0475 36.097 55.619 39.5255C52.1905 42.954 52.1905 48.5323 55.619 51.9608C59.0475 55.3894 64.6258 55.3894 68.0543 51.9608C71.4829 48.5323 71.4829 42.9538 68.0543 39.5255ZM63.9092 47.8157C62.7665 48.9585 60.9069 48.9585 59.7641 47.8157C58.6213 46.6729 58.6213 44.8134 59.7641 43.6706C60.9069 42.5278 62.7665 42.5278 63.9092 43.6706C65.052 44.8134 65.0522 46.6728 63.9092 47.8157Z" fill="#FF405C"/>
<path d="M32.1472 39.5255C28.7187 36.097 23.1404 36.097 19.7119 39.5255C16.2834 42.954 16.2834 48.5323 19.7119 51.9608C23.1404 55.3894 28.7187 55.3894 32.1472 51.9608C35.5758 48.5323 35.5758 42.9538 32.1472 39.5255ZM28.0021 47.8157C26.8594 48.9585 24.9998 48.9585 23.857 47.8157C22.7142 46.6729 22.7142 44.8134 23.857 43.6706C24.9998 42.5278 26.8594 42.5278 28.0021 43.6706C29.1449 44.8134 29.1449 46.6728 28.0021 47.8157Z" fill="#FF7038"/>
<path d="M39.757 67.3854L48.5152 41.1108L39.2509 50.3751L34.1984 65.5325C33.8353 66.6214 34.1472 67.7726 34.9072 68.5325C35.2185 68.8438 35.605 69.0896 36.0511 69.2382C37.5863 69.7503 39.2455 68.9204 39.757 67.3854Z" fill="#FF405C"/>
<path d="M88.7676 0.858447C87.6236 -0.285498 85.7685 -0.285498 84.6244 0.858447L68.0518 17.4313L72.1949 21.5745L88.7676 5.00161C89.9119 3.85767 89.9119 2.00239 88.7676 0.858447Z" fill="#00429B"/>
<path d="M88.7672 5.00156C89.9113 3.85762 89.9115 2.00254 88.7672 0.858398L70.1229 19.5027L72.1945 21.5744L88.7672 5.00156Z" fill="#002659"/>
<path d="M74.2665 26.575C73.5167 26.575 72.7669 26.2889 72.1951 25.7168L63.9085 17.4303C62.7644 16.2864 62.7644 14.4313 63.9085 13.2872C65.0525 12.1432 66.9075 12.1432 68.0517 13.2872L76.3382 21.5737C77.4824 22.7176 77.4824 24.5727 76.3382 25.7168C75.7662 26.2889 75.0163 26.575 74.2665 26.575Z" fill="#FF8659"/>
<path d="M76.3383 21.5733L72.1951 17.4302L68.0519 21.5733L72.1951 25.7165C72.7672 26.2886 73.517 26.5747 74.2666 26.5747C75.0164 26.5747 75.7662 26.2886 76.3381 25.7165C77.4824 24.5726 77.4824 22.7175 76.3383 21.5733Z" fill="#FF6326"/>
</g>
<defs>
<clipPath id="clip0">
<rect width="100" height="100" fill="white"/>
</clipPath>
</defs>
</svg>
