<svg width="100" height="100" viewBox="0 0 100 100" fill="none" xmlns="http://www.w3.org/2000/svg">
<path d="M73.3734 24.0837C73.3734 30.7022 70.9999 36.4311 66.3177 41.114C61.6356 45.7962 55.9059 48.1697 49.2874 48.1697H49.2759C42.6658 48.1674 36.94 45.7939 32.2578 41.114C27.5749 36.4311 25.2021 30.7022 25.2021 24.0837C25.2021 17.4675 27.5749 11.7378 32.2578 7.05566C36.9377 2.37503 42.6635 0.00228883 49.2759 0H49.2874C55.9036 0 61.6333 2.3735 66.3177 7.05566C70.9999 11.7378 73.3734 17.4675 73.3734 24.0837Z" fill="#FFBB85"/>
<path d="M91.6344 82.8018C91.6344 88.0233 89.9734 92.2508 86.702 95.3643C83.4686 98.4413 79.1924 99.9999 73.9929 99.9999H25.8423C20.6429 99.9999 16.3666 98.4413 13.1355 95.3643C9.86176 92.2485 8.20312 88.0218 8.20312 82.8018C8.20312 80.7937 8.2695 78.807 8.40225 76.8966C8.53729 74.9435 8.81042 72.8179 9.21326 70.5757C9.61914 68.3151 10.141 66.1781 10.7658 64.2249C11.4143 62.2032 12.2917 60.2088 13.3774 58.2984C14.505 56.3156 15.8295 54.5883 17.3141 53.1661C18.8705 51.6776 20.7733 50.4821 22.9729 49.6108C25.1648 48.7441 27.5948 48.3047 30.1949 48.3047C31.2149 48.3047 32.2029 48.722 34.1072 49.9626C35.2989 50.74 36.6722 51.625 38.1882 52.5939C39.4974 53.4286 41.2704 54.2114 43.4624 54.9186C45.3888 55.5419 47.3442 55.8898 49.276 55.9501C49.4888 55.9577 49.7017 55.9615 49.9146 55.9615C52.0599 55.9615 54.2297 55.6098 56.369 54.9186C58.5609 54.2114 60.3363 53.4286 61.6447 52.5939C63.1767 51.6151 64.55 50.7308 65.7242 49.9648C67.63 48.722 68.6165 48.3047 69.6388 48.3047C72.2366 48.3047 74.6666 48.7441 76.86 49.6108C79.0596 50.4821 80.9624 51.6799 82.5172 53.1661C84.0042 54.5883 85.3287 56.3156 86.4555 58.2984C87.542 60.2104 88.4209 62.2032 89.0671 64.2227C89.6927 66.1781 90.2161 68.3151 90.6219 70.5772C91.0225 72.8217 91.2964 74.9473 91.4307 76.8951C91.5657 78.7994 91.6321 80.7861 91.6344 82.8018Z" fill="#6AA9FF"/>
<path d="M49.2873 48.1697H49.2759V0H49.2873C55.9035 0 61.6332 2.3735 66.3177 7.05566C70.9998 11.7378 73.3733 17.4675 73.3733 24.0837C73.3733 30.7022 70.9998 36.4311 66.3177 41.114C61.6355 45.7962 55.9058 48.1697 49.2873 48.1697Z" fill="#F5A86C"/>
<path d="M91.6343 82.8018C91.6343 88.0233 89.9734 92.2508 86.7019 95.3643C83.4685 98.4413 79.1923 99.9999 73.9928 99.9999H49.2759V55.9501C49.4887 55.9577 49.7016 55.9615 49.9145 55.9615C52.0598 55.9615 54.2296 55.6098 56.3689 54.9186C58.5609 54.2114 60.3362 53.4286 61.6447 52.5939C63.1766 51.6151 64.5499 50.7308 65.7241 49.9648C67.6299 48.722 68.6164 48.3047 69.6387 48.3047C72.2365 48.3047 74.6665 48.7441 76.86 49.6108C79.0595 50.4821 80.9623 51.6799 82.5172 53.1661C84.0041 54.5883 85.3286 56.3156 86.4554 58.2984C87.5419 60.2104 88.4208 62.2032 89.067 64.2227C89.6926 66.1781 90.216 68.3151 90.6219 70.5772C91.0224 72.8217 91.2963 74.9473 91.4306 76.8951C91.5656 78.7994 91.632 80.7861 91.6343 82.8018Z" fill="#2682FF"/>
</svg>
