<svg width="100" height="100" viewBox="0 0 100 100" fill="none" xmlns="http://www.w3.org/2000/svg">
<path d="M68.4941 87.2559H3.47852L7.03711 23.5352H30.127L33.0566 25.0859L35.9863 23.5352H64.6602L68.4941 87.2559Z" fill="#FF3D58"/>
<path d="M68.4941 87.2559H35.9863V23.5352H64.6602L68.4941 87.2559Z" fill="#D20173"/>
<path d="M71.0332 100C85.11 100 96.5215 88.5885 96.5215 74.5117C96.5215 60.4349 85.11 49.0234 71.0332 49.0234C56.9564 49.0234 45.5449 60.4349 45.5449 74.5117C45.5449 88.5885 56.9564 100 71.0332 100Z" fill="#97CBFF"/>
<path d="M96.5215 74.5117C96.5215 88.5879 85.1094 100 71.0332 100V49.0234C85.1094 49.0234 96.5215 60.4355 96.5215 74.5117Z" fill="#7F7CFF"/>
<path d="M83.7617 69.0879L71.0332 81.8164L68.7695 84.0801L58.3047 73.6152L62.4492 69.4727L68.7695 75.793L71.0332 73.5293L79.6172 64.9434L83.7617 69.0879Z" fill="#F1F1F1"/>
<path d="M83.7617 69.0879L71.0332 81.8164V73.5293L79.6172 64.9434L83.7617 69.0879Z" fill="#D6D6EA"/>
<path d="M53.498 17.5117V38.2324H47.6387V17.5117C47.6387 11.0859 42.4121 5.85938 35.9863 5.85938C29.5605 5.85938 24.334 11.0859 24.334 17.5117V38.2324H18.4746V17.5117C18.4746 7.85547 26.3301 0 35.9863 0C45.6426 0 53.498 7.85547 53.498 17.5117Z" fill="#4E588B"/>
<path d="M53.498 17.5117V38.2324H47.6387V17.5117C47.6387 11.0859 42.4121 5.85938 35.9863 5.85938V0C45.6426 0 53.498 7.85547 53.498 17.5117Z" fill="#293E65"/>
<path d="M30.127 23.5352H35.9863V38.2324H30.127V23.5352Z" fill="#4E588B"/>
<path d="M39.4297 40.5098V55.3965H26.6855V40.5098L33.0566 36.2793L33.0586 36.2812L39.4297 40.5098Z" fill="#FFEE00"/>
<path d="M39.4297 40.5098V55.3965H33.0586V36.2812L39.4297 40.5098Z" fill="#FFCC00"/>
</svg>
