<svg width="100" height="100" viewBox="0 0 100 100" fill="none" xmlns="http://www.w3.org/2000/svg">
<g clip-path="url(#clip0)">
<path d="M88.2691 73.0768H30.4732C29.1299 73.0768 27.9646 72.1496 27.6625 70.8408L13.0898 7.69219H2.88457C1.2916 7.69219 0 6.40059 0 4.80762C0 3.21465 1.2916 1.92285 2.88457 1.92285H15.3846C16.7279 1.92285 17.8932 2.85 18.1953 4.15879L32.768 67.3074H88.2691C89.8623 67.3074 91.1537 68.599 91.1537 70.192C91.1539 71.7852 89.8623 73.0768 88.2691 73.0768Z" fill="#6972DA"/>
<path d="M99.3679 14.5443C98.8205 13.8602 97.9918 13.4619 97.1154 13.4619H18.0472C17.1681 13.4619 16.3371 13.8627 15.7898 14.5508C15.2425 15.2389 15.0388 16.1387 15.2365 16.9951L24.1123 55.4566C24.4144 56.7654 25.5798 57.6926 26.923 57.6926H88.4615C89.8107 57.6926 90.9797 56.7574 91.2757 55.4412L99.9297 16.9797C100.122 16.1246 99.9154 15.2287 99.3679 14.5443Z" fill="#1692FF"/>
<path d="M42.3074 76.9229C36.4754 76.9229 31.7305 81.6676 31.7305 87.4998C31.7305 93.3318 36.4752 98.0768 42.3074 98.0768C48.1396 98.0768 52.8844 93.332 52.8844 87.4998C52.8844 81.6678 48.1396 76.9229 42.3074 76.9229Z" fill="#6972DA"/>
<path d="M76.9227 76.9229C71.0906 76.9229 66.3457 81.6676 66.3457 87.4998C66.3457 93.3318 71.0904 98.0768 76.9227 98.0768C82.7547 98.0768 87.4996 93.332 87.4996 87.4998C87.4996 81.6678 82.7549 76.9229 76.9227 76.9229Z" fill="#4F5EC6"/>
<path d="M88.2691 67.3076H50V73.0768H88.2691C89.8623 73.0768 91.1537 71.7852 91.1537 70.1922C91.1539 68.599 89.8623 67.3076 88.2691 67.3076Z" fill="#4F5EC6"/>
<path d="M97.1155 13.4614H50V57.6923H88.4615C89.8108 57.6923 90.9797 56.7571 91.2758 55.4409L99.9297 16.9794C100.122 16.1243 99.9155 15.2284 99.368 14.544C98.8203 13.8597 97.9918 13.4614 97.1155 13.4614Z" fill="#007FDD"/>
</g>
<defs>
<clipPath id="clip0">
<rect width="100" height="100" fill="white"/>
</clipPath>
</defs>
</svg>
