<svg width="100" height="100" viewBox="0 0 100 100" fill="none" xmlns="http://www.w3.org/2000/svg">
<path d="M14.0625 77.5391H10.4492C4.6875 77.5391 0 72.8516 0 67.0898C0 61.3281 4.6875 56.6406 10.4492 56.6406H12.6953V62.5H10.4492C7.91836 62.5 5.85938 64.559 5.85938 67.0898C5.85938 69.6207 7.91836 71.6797 10.4492 71.6797H14.0625V77.5391Z" fill="#6354B1"/>
<path d="M14.4531 37.5H10.4492C4.6875 37.5 0 32.8125 0 27.0508C0 21.2891 4.6875 16.6016 10.4492 16.6016H12.6953V22.4609H10.4492C7.91836 22.4609 5.85938 24.5199 5.85938 27.0508C5.85938 29.5816 7.91836 31.6406 10.4492 31.6406H14.4531V37.5Z" fill="#6354B1"/>
<path d="M88.6719 82.8125H100V58.0078L94.5312 56.0547L88.6719 58.0078L86.5234 70.1172L88.6719 82.8125Z" fill="#FFDD46"/>
<path d="M88.6719 58.0078H100V33.2031L94.5312 32.0312L88.6719 33.2031L85.9375 45.3125L88.6719 58.0078Z" fill="#FFB54C"/>
<path d="M88.6719 33.2031H100V8.39844H88.6719L86.5234 20.8984L88.6719 33.2031Z" fill="#00DC7B"/>
<path d="M12.6953 0.976562H88.6719V85.7422H12.6953V0.976562Z" fill="#E2E1F4"/>
<path d="M12.6953 85.7422L12.6969 88.6932C12.7381 94.3893 17.4059 99.0234 23.102 99.0234H88.6719V85.7422H12.6953Z" fill="#ACA6D6"/>
<path d="M50.7812 85.7422H88.6719V99.0234H50.7812V85.7422Z" fill="#6354B1"/>
<path d="M11.9141 56.6406H26.5625V62.5H11.9141V56.6406Z" fill="#6354B1"/>
<path d="M11.3281 16.6016H26.5625V22.4609H11.3281V16.6016Z" fill="#6354B1"/>
<path d="M50.7812 0.976562H88.6719V85.7422H50.7812V0.976562Z" fill="#ACA6D6"/>
<path d="M50.7793 23.0469C46.2488 23.0469 42.5762 26.7195 42.5762 31.25C42.5762 35.7805 46.2488 39.4531 50.7793 39.4531H50.7812L52.3437 31.25L50.7812 23.0469C50.7807 23.0469 50.7799 23.0469 50.7793 23.0469Z" fill="#6354B1"/>
<path d="M58.9824 31.25C58.9824 26.7201 55.3107 23.048 50.7812 23.0469V39.4531C55.3107 39.452 58.9824 35.7799 58.9824 31.25Z" fill="#463B84"/>
<path d="M50.7793 45.3125C43.7266 45.3125 37.9941 50.9785 37.8906 58.0078H50.7812L52.5391 51.9531L50.7812 45.3125C50.7807 45.3125 50.7799 45.3125 50.7793 45.3125Z" fill="#6354B1"/>
<path d="M50.7812 45.3125V58.0078H63.668C63.5645 50.9791 57.833 45.3137 50.7812 45.3125Z" fill="#463B84"/>
</svg>
