<svg width="100" height="100" viewBox="0 0 100 100" fill="none" xmlns="http://www.w3.org/2000/svg">
<g clip-path="url(#clip0)">
<path d="M67.5781 11.7188H19.9219V88.2812H67.5781C69.1961 88.2812 70.5078 86.9695 70.5078 85.3516V14.6484C70.5078 13.0305 69.1961 11.7188 67.5781 11.7188Z" fill="url(#paint0_linear)"/>
<path d="M91.0156 41.2109H76.3672V38.2813C76.3672 37.2008 75.7725 36.208 74.8199 35.6982C73.8672 35.1885 72.7113 35.2443 71.8125 35.8436L54.2344 47.5623C53.4193 48.1057 52.9297 49.0205 52.9297 50C52.9297 50.9795 53.4191 51.8943 54.2344 52.4377L71.8125 64.1564C72.7137 64.7572 73.8699 64.8104 74.8199 64.3018C75.7725 63.792 76.3672 62.7992 76.3672 61.7188V58.7891H91.0156C92.6336 58.7891 93.9453 57.4773 93.9453 55.8594V44.1406C93.9453 42.5227 92.6336 41.2109 91.0156 41.2109ZM45.8537 0.553133C45.0898 0.00235159 44.1078 -0.147453 43.2143 0.150398L8.05801 11.8691C6.86172 12.268 6.05469 13.3875 6.05469 14.6484V85.3516C6.05469 86.6127 6.86152 87.732 8.05801 88.1309L43.2143 99.8496C44.1154 100.15 45.0971 99.9924 45.8537 99.4469C46.6176 98.8965 47.0703 98.0121 47.0703 97.0703V2.9297C47.0703 1.98809 46.6176 1.10372 45.8537 0.553133ZM32.4219 52.9297C30.8039 52.9297 29.4922 51.618 29.4922 50C29.4922 48.382 30.8039 47.0703 32.4219 47.0703C34.0398 47.0703 35.3516 48.382 35.3516 50C35.3516 51.618 34.0398 52.9297 32.4219 52.9297Z" fill="url(#paint1_linear)"/>
</g>
<defs>
<linearGradient id="paint0_linear" x1="45.2148" y1="88.2812" x2="45.2148" y2="11.7188" gradientUnits="userSpaceOnUse">
<stop stop-color="#FFE59A"/>
<stop offset="1" stop-color="#FFFFD5"/>
</linearGradient>
<linearGradient id="paint1_linear" x1="50" y1="100" x2="50" y2="1.19209e-05" gradientUnits="userSpaceOnUse">
<stop stop-color="#FD5900"/>
<stop offset="1" stop-color="#FFDE00"/>
</linearGradient>
<clipPath id="clip0">
<rect width="100" height="100" fill="white"/>
</clipPath>
</defs>
</svg>
