<svg width="100" height="100" viewBox="0 0 100 100" fill="none" xmlns="http://www.w3.org/2000/svg">
<g clip-path="url(#clip0)">
<path d="M97.803 51.0978C97.803 78.1058 75.909 99.9999 48.9009 99.9999C32.0224 99.9999 17.1413 91.4489 8.35298 78.443C5.79637 74.6604 2.39824 67.015 1.05165 59.8807C-0.379621 52.2948 0.326097 45.2872 0.493944 44.1108C3.88445 20.4124 24.2648 2.19568 48.9009 2.19568C75.909 2.19568 97.803 24.0897 97.803 51.0978Z" fill="#F5C02C"/>
<path d="M92.9847 7.01522C102.338 16.3696 102.338 31.5353 92.9847 40.889C83.6303 50.2426 68.4653 50.2426 59.1109 40.889C49.7573 31.5353 49.7573 16.3696 59.1109 7.01522C68.4653 -2.33841 83.6303 -2.33841 92.9847 7.01522Z" fill="#00B96F"/>
<path d="M92.9861 7.01517C101.533 15.5624 102.269 28.9619 95.1948 38.346C85.8106 45.42 72.4119 44.6845 63.8639 36.1373C55.3167 27.5894 54.5812 14.1906 61.6552 4.80646C71.0394 -2.26751 84.4381 -1.53203 92.9861 7.01517Z" fill="#54D680"/>
<path d="M98.9686 13.4552L79.4945 32.9293C78.8071 33.6167 77.9053 33.9608 77.0051 33.9608C76.104 33.9608 75.203 33.6174 74.5156 32.9293L64.8202 23.2346C63.4454 21.859 63.4454 19.6297 64.8202 18.2549C66.195 16.8801 68.4243 16.8801 69.7991 18.2549L77.0051 25.4609L93.9904 8.4763C95.3652 7.10149 97.5937 7.10149 98.9693 8.4763C100.344 9.85112 100.344 12.0804 98.9686 13.4552Z" fill="#FFE49F"/>
<path d="M98.9693 8.47624C100.345 9.85105 100.345 12.0796 98.9701 13.4544L82.2136 30.2101C81.5262 30.8975 80.6252 31.2416 79.7241 31.2416C78.8231 31.2416 77.9221 30.8983 77.2347 30.2101L67.5392 20.5147C66.6664 19.6419 66.3498 18.425 66.5848 17.3004C67.7094 17.0654 68.9263 17.382 69.7991 18.2548L77.005 25.4608L93.9903 8.47547C95.3652 7.10066 97.5945 7.10066 98.9693 8.47624Z" fill="#FFF5F5"/>
<path d="M79.5226 49.4292C79.3487 49.5223 79.2411 49.7031 79.2411 49.9C79.2411 50.0968 79.3487 50.2784 79.5226 50.3707C80.7799 51.0429 81.6367 52.3666 81.6367 53.8924V55.8883C81.6367 57.4134 80.7799 58.7379 79.5226 59.4092C79.3487 59.5023 79.2411 59.6831 79.2411 59.88C79.2411 60.0768 79.3487 60.2584 79.5226 60.3507C80.7799 61.0229 81.6367 62.3466 81.6367 63.8724V65.8683C81.6367 67.3934 80.7799 68.7179 79.5226 69.3893C79.3487 69.4823 79.2411 69.6632 79.2411 69.86C79.2411 70.0568 79.3487 70.2384 79.5226 70.3307C80.7799 71.0029 81.6367 72.3266 81.6367 73.8524V75.8483C81.6367 78.0532 79.8492 79.84 77.6443 79.84H56.327C53.3225 79.84 50.3997 78.8589 48.0041 77.0461C45.6077 75.2326 42.6856 74.2515 39.6804 74.2515H23.3535V48.3031H37.5167C40.3693 48.3031 43.0045 46.7818 44.4312 44.3114L51.184 32.6148C51.7097 31.7039 51.9859 30.6716 51.9859 29.6203V22.9537C51.9859 21.3004 53.3263 19.96 54.9804 19.96C58.8386 19.96 61.9659 23.088 61.9659 26.9462V30.7082C61.9659 32.8201 61.4074 34.8945 60.3477 36.7202L59.0118 39.0205C58.7806 39.4202 59.0682 39.92 59.5298 39.92H77.6443C79.8492 39.92 81.6367 41.7075 81.6367 43.9124V45.9083C81.6367 47.4334 80.7799 48.7579 79.5226 49.4292Z" fill="#FFDFCF"/>
<path d="M55.6881 20.7588V24.7505C55.6881 25.8529 54.7947 26.7463 53.6923 26.7463H51.9863V22.9537C51.9863 21.3004 53.3268 19.96 54.9801 19.96C55.1663 19.96 55.3501 19.9691 55.5325 19.9836C55.6324 20.2224 55.6881 20.4841 55.6881 20.7588Z" fill="#FFEEE6"/>
<path d="M65.6684 47.9042C65.6684 46.8017 66.5626 45.9083 67.6643 45.9083H81.6367C81.6367 47.4334 80.7799 48.7579 79.5226 49.4293C79.3487 49.5224 79.2411 49.7032 79.2411 49.9H67.6643C66.5626 49.9 65.6684 49.0066 65.6684 47.9042ZM77.6443 73.4535H56.327C53.3225 73.4535 50.3997 72.4716 48.0041 70.6588C45.6077 68.8453 42.6856 67.8642 39.6804 67.8642H23.3535V74.2515H39.6804C42.6856 74.2515 45.6077 75.2327 48.0041 77.0462C50.3997 78.8589 53.3225 79.84 56.327 79.84H77.6443C79.8492 79.84 81.6367 78.0532 81.6367 75.8483V73.8525C81.6367 73.0415 81.3903 72.29 80.9745 71.6613C80.2596 72.7401 79.0359 73.4535 77.6443 73.4535ZM65.6684 67.8642C65.6684 68.9666 66.5626 69.86 67.6643 69.86H79.2411C79.2411 69.6632 79.3487 69.4824 79.5226 69.3893C80.7799 68.7179 81.6367 67.3935 81.6367 65.8683H67.6643C66.5626 65.8683 65.6684 66.7617 65.6684 67.8642ZM65.6684 57.8842C65.6684 58.9866 66.5626 59.88 67.6643 59.88H79.2411C79.2411 59.6832 79.3487 59.5024 79.5226 59.4093C80.7799 58.7379 81.6367 57.4134 81.6367 55.8883H67.6643C66.5626 55.8883 65.6684 56.7817 65.6684 57.8842Z" fill="#FFC9C0"/>
<path d="M31.337 44.9104V77.6451C31.337 79.2984 29.9965 80.6389 28.3432 80.6389H18.3632C16.9868 80.6389 15.8302 79.7081 15.48 78.4431H8.35418C3.07999 70.6375 0 61.2274 0 51.0979C0 48.7259 0.172424 46.3936 0.498962 44.1116H15.48C15.8302 42.8467 16.9868 41.9159 18.3632 41.9159H28.3432C29.9965 41.9159 31.337 43.2564 31.337 44.9104Z" fill="#FF393A"/>
<path d="M0 51.0979C0 48.7259 0.168609 46.3936 0.495147 44.1116H9.3811V68.6012C9.3811 70.2545 8.04062 71.595 6.38733 71.595H4.4899C1.60751 65.3602 0 58.4175 0 51.0979ZM15.3694 44.9104V70.858C15.3694 72.512 16.7099 73.8525 18.3632 73.8525H28.3432C29.9965 73.8525 31.337 72.512 31.337 70.858V44.9104C31.337 43.2564 29.9965 41.9159 28.3432 41.9159H18.3632C16.7099 41.9159 15.3694 43.2564 15.3694 44.9104Z" fill="#FF6466"/>
</g>
<defs>
<clipPath id="clip0">
<rect width="100" height="100" fill="white"/>
</clipPath>
</defs>
</svg>
