<svg width="100" height="100" viewBox="0 0 100 100" fill="none" xmlns="http://www.w3.org/2000/svg">
<g clip-path="url(#clip0)">
<path d="M87.4839 13.3222C76.4682 13.3222 65.789 9.52666 57.2439 2.5749C53.0249 -0.857649 46.9759 -0.857649 42.7569 2.5749C34.212 9.52686 23.5325 13.3222 12.5171 13.3222C9.07725 13.3222 6.28882 16.1106 6.28882 19.5504V36.2429C6.28882 57.6569 15.9314 77.9326 32.5425 91.4469L37.6694 95.6178C44.852 101.461 55.1496 101.461 62.3322 95.6178L67.459 91.4469C84.07 77.9327 93.7127 57.6561 93.7127 36.2422C93.7127 29.8335 93.7127 23.811 93.7127 19.549C93.7122 16.1092 90.9237 13.3222 87.4839 13.3222Z" fill="url(#paint0_linear)"/>
<path d="M50 94.5049C48.7992 94.5049 47.6247 94.0875 46.6931 93.3296L36.8875 85.352C29.7253 79.5249 23.8433 72.0375 19.8779 63.6992C15.9124 55.361 13.8163 46.0731 13.8163 36.84V23.5933C13.8163 21.9908 15.1265 20.628 16.7269 20.5435C27.64 19.9665 38.1904 15.9196 46.6931 9.00195C47.6249 8.24392 48.7992 7.82666 50 7.82666C51.201 7.82666 52.3753 8.24392 53.3069 9.00176C61.81 15.9196 72.3606 19.9665 83.2737 20.5435C84.8737 20.628 86.1837 21.9906 86.1837 23.5929V36.8392C86.1837 46.0726 84.0877 55.3604 80.1222 63.6988C76.1567 72.0375 70.2749 79.5249 63.1128 85.352L53.3069 93.3296C52.3753 94.0877 51.201 94.5049 50 94.5049Z" fill="url(#paint1_linear)"/>
<path d="M50.0003 90.8473C48.9007 90.8473 47.8254 90.4652 46.9725 89.7713L37.9942 82.4669C31.4364 77.1316 26.0509 70.276 22.4201 62.6414C18.7893 55.0069 16.8701 46.5028 16.8701 38.0487V25.9199C16.8701 24.4526 18.0697 23.205 19.535 23.1273C29.5272 22.5989 39.1874 18.8936 46.9725 12.5597C47.8256 11.8658 48.9009 11.4834 50.0003 11.4834C51.0999 11.4834 52.1752 11.8656 53.028 12.5595C60.8134 18.8936 70.4738 22.5989 80.466 23.1273C81.9311 23.2048 83.1305 24.4522 83.1305 25.9193V38.0477C83.1305 46.5018 81.2113 55.006 77.5805 62.6409C73.9497 70.2758 68.5642 77.1314 62.0064 82.4667L53.028 89.7711C52.1752 90.4652 51.0999 90.8473 50.0003 90.8473Z" fill="url(#paint2_linear)"/>
<path d="M93.7118 19.5486C93.7118 16.1088 90.9233 13.3218 87.4835 13.3218C76.4678 13.3218 65.7886 9.52627 57.2435 2.57451C55.1339 0.858235 52.5671 0 50 0V100C54.37 100 58.74 98.5392 62.3314 95.6174L67.4582 91.4465C84.0692 77.9324 93.7118 57.6557 93.712 36.2418C93.7118 29.8329 93.7118 23.8104 93.7118 19.5486Z" fill="url(#paint3_linear)"/>
<path d="M82.6328 29.1001C80.6738 27.1412 77.4977 27.5428 75.5387 29.5016L51.0977 53.9424C50.8595 54.1807 50.1862 54.6322 50.0003 54.6322C49.8144 54.6322 49.5426 54.5822 49.3042 54.3438L39.9356 44.9752C37.9766 43.0163 35.0013 43.0163 33.0423 44.9752C31.0832 46.9342 30.8825 49.7087 32.8415 51.6677L70.2368 89.063C84.1836 76.4722 92.5862 58.8673 93.6062 40.1112L82.6328 29.1001Z" fill="url(#paint4_linear)"/>
<path d="M67.4583 91.4465C79.3146 81.8006 87.6195 68.709 91.4033 54.2182L68.7983 31.6135C64.0807 26.6308 57.4038 23.9233 50.0003 23.9233C35.8946 23.9231 24.5177 35.3002 24.5179 49.4059C24.5179 56.8094 27.2254 63.4861 32.2083 68.2037L59.3766 95.372C60.2066 96.202 61.5301 96.2698 62.4407 95.529L67.4583 91.4465Z" fill="url(#paint5_linear)"/>
<path d="M50.0005 75.2889C64.2957 75.2889 75.8843 63.7004 75.8843 49.4052C75.8843 35.11 64.2957 23.5215 50.0005 23.5215C35.7054 23.5215 24.1168 35.11 24.1168 49.4052C24.1168 63.7004 35.7054 75.2889 50.0005 75.2889Z" fill="url(#paint6_linear)"/>
<path d="M70.9021 34.1382L51.0978 53.9423C50.8595 54.1805 50.1862 54.6321 50.0003 54.6321C49.8144 54.6321 49.5427 54.5821 49.3042 54.3437L39.9356 44.975C37.9766 43.0162 35.0013 43.0162 33.0423 44.975C31.0832 46.9341 30.8825 49.7086 32.8415 51.6676L55.8081 74.6343C67.3068 71.998 75.884 61.7035 75.884 49.405C75.884 43.6952 74.0336 38.4184 70.9021 34.1382Z" fill="url(#paint7_linear)"/>
<path d="M50.0002 64.2631C47.0574 64.2631 44.2907 63.117 42.21 61.0363L32.8413 51.6678C30.8823 49.7088 30.8823 46.5327 32.8413 44.5737C34.8002 42.6149 37.9762 42.6149 39.9355 44.5737L49.3041 53.9423C49.5425 54.1808 49.8143 54.2308 50.0002 54.2308C50.186 54.2308 50.4578 54.1808 50.6962 53.9423L75.5386 29.1C77.4976 27.1412 80.6737 27.1412 82.6327 29.1C84.5917 31.059 84.5917 34.2351 82.6327 36.1941L57.7904 61.0363C55.7096 63.117 52.9429 64.2631 50.0002 64.2631Z" fill="url(#paint8_linear)"/>
</g>
<defs>
<linearGradient id="paint0_linear" x1="13.3763" y1="4.72137" x2="88.7618" y2="80.1069" gradientUnits="userSpaceOnUse">
<stop stop-color="#B5DBFF"/>
<stop offset="1" stop-color="#76E2F8"/>
</linearGradient>
<linearGradient id="paint1_linear" x1="99.1902" y1="91.7357" x2="32.4898" y2="25.0351" gradientUnits="userSpaceOnUse">
<stop stop-color="#B5DBFF" stop-opacity="0"/>
<stop offset="0.2428" stop-color="#93CEF6" stop-opacity="0.243"/>
<stop offset="0.5763" stop-color="#6ABFEC" stop-opacity="0.576"/>
<stop offset="0.8403" stop-color="#51B5E5" stop-opacity="0.84"/>
<stop offset="1" stop-color="#48B2E3"/>
</linearGradient>
<linearGradient id="paint2_linear" x1="37.104" y1="30.3761" x2="66.404" y2="59.6761" gradientUnits="userSpaceOnUse">
<stop stop-color="#EDF5FF"/>
<stop offset="1" stop-color="#D5E8FE"/>
</linearGradient>
<linearGradient id="paint3_linear" x1="59.0851" y1="51.6845" x2="-1.10962" y2="22.7912" gradientUnits="userSpaceOnUse">
<stop stop-color="#B5DBFF" stop-opacity="0"/>
<stop offset="0.1734" stop-color="#8FC5E9" stop-opacity="0.173"/>
<stop offset="0.4541" stop-color="#56A4C8" stop-opacity="0.454"/>
<stop offset="0.6955" stop-color="#2D8DB1" stop-opacity="0.696"/>
<stop offset="0.8853" stop-color="#147EA2" stop-opacity="0.885"/>
<stop offset="1" stop-color="#0B799D"/>
</linearGradient>
<linearGradient id="paint4_linear" x1="82.1125" y1="63.3693" x2="61.5125" y2="47.7185" gradientUnits="userSpaceOnUse">
<stop stop-color="#B5DBFF" stop-opacity="0"/>
<stop offset="0.1734" stop-color="#8FC5E9" stop-opacity="0.173"/>
<stop offset="0.4541" stop-color="#56A4C8" stop-opacity="0.454"/>
<stop offset="0.6955" stop-color="#2D8DB1" stop-opacity="0.696"/>
<stop offset="0.8853" stop-color="#147EA2" stop-opacity="0.885"/>
<stop offset="1" stop-color="#0B799D"/>
</linearGradient>
<linearGradient id="paint5_linear" x1="78.6444" y1="78.0498" x2="44.3113" y2="43.7167" gradientUnits="userSpaceOnUse">
<stop stop-color="#B5DBFF" stop-opacity="0"/>
<stop offset="0.1734" stop-color="#8FC5E9" stop-opacity="0.173"/>
<stop offset="0.4541" stop-color="#56A4C8" stop-opacity="0.454"/>
<stop offset="0.6955" stop-color="#2D8DB1" stop-opacity="0.696"/>
<stop offset="0.8853" stop-color="#147EA2" stop-opacity="0.885"/>
<stop offset="1" stop-color="#0B799D"/>
</linearGradient>
<linearGradient id="paint6_linear" x1="37.9615" y1="37.3664" x2="62.91" y2="62.3146" gradientUnits="userSpaceOnUse">
<stop stop-color="#B9DD39"/>
<stop offset="1" stop-color="#90CC1C"/>
</linearGradient>
<linearGradient id="paint7_linear" x1="73.527" y1="64.5582" x2="64.2499" y2="55.2809" gradientUnits="userSpaceOnUse">
<stop stop-color="#66BB00" stop-opacity="0"/>
<stop offset="1" stop-color="#66BB00"/>
</linearGradient>
<linearGradient id="paint8_linear" x1="47.7221" y1="30.3688" x2="73.5619" y2="56.2086" gradientUnits="userSpaceOnUse">
<stop stop-color="#0B799D"/>
<stop offset="1" stop-color="#07485E"/>
</linearGradient>
<clipPath id="clip0">
<rect width="100" height="100" fill="white"/>
</clipPath>
</defs>
</svg>
