<svg width="20" height="20" viewBox="0 0 20 20" fill="none" xmlns="http://www.w3.org/2000/svg">
<path d="M10.0001 1.66663C5.40008 1.66663 1.66675 5.39996 1.66675 9.99996C1.66675 14.6 5.40008 18.3333 10.0001 18.3333C14.6001 18.3333 18.3334 14.6 18.3334 9.99996C18.3334 5.39996 14.6001 1.66663 10.0001 1.66663ZM10.0001 16.6666C6.31675 16.6666 3.33341 13.6833 3.33341 9.99996C3.33341 8.45829 3.85841 7.04163 4.74175 5.91663L14.0834 15.2583C12.9584 16.1416 11.5417 16.6666 10.0001 16.6666ZM15.2584 14.0833L5.91675 4.74163C7.04175 3.85829 8.45842 3.33329 10.0001 3.33329C13.6834 3.33329 16.6667 6.31663 16.6667 9.99996C16.6667 11.5416 16.1417 12.9583 15.2584 14.0833Z" fill="#DB2D0A"/>
</svg>
