<svg width="100" height="100" viewBox="0 0 100 100" fill="none" xmlns="http://www.w3.org/2000/svg">
<path d="M100 50C100 54.802 99.3225 59.4449 98.0592 63.8408C97.3734 66.2205 96.5203 68.5266 95.5061 70.7469C94.7225 72.4633 93.8428 74.1285 92.8775 75.7326C92.3019 76.6918 91.6939 77.6285 91.0551 78.5449C82.0244 91.5123 67.002 100 50 100C32.998 100 17.9756 91.5123 8.94492 78.5449C8.30606 77.6307 7.7 76.6939 7.12246 75.7348C6.15723 74.1287 5.27754 72.4613 4.4918 70.743C3.47949 68.5227 2.62441 66.2186 1.94082 63.841C0.677539 59.4449 0 54.802 0 50C0 45.198 0.677539 40.5551 1.94082 36.1592C2.62441 33.7816 3.47969 31.4756 4.4918 29.2592C5.3082 27.4693 6.22656 25.7389 7.24082 24.0715C7.81426 23.1266 8.41836 22.2041 9.05098 21.3021C18.0959 8.42031 33.0633 0 50 0C66.9367 0 81.9041 8.42031 90.949 21.302C91.5816 22.2039 92.1857 23.1264 92.7592 24.0713C93.7734 25.7365 94.6898 27.4672 95.5061 29.2549C96.5203 31.4732 97.3754 33.7793 98.0592 36.159C99.3225 40.5551 100 45.198 100 50Z" fill="#475096"/>
<path d="M89.7626 39.7637C89.7626 48.9352 86.6579 57.3811 81.4415 64.1082C74.1675 73.4891 62.7886 79.5264 49.9997 79.5264C37.2108 79.5264 25.8321 73.4889 18.5579 64.1082C13.3417 57.3811 10.2368 48.9352 10.2368 39.7637C10.2372 17.8033 28.0396 0.000976562 49.9999 0.000976562C71.9603 0.000976562 89.7626 17.8033 89.7626 39.7637Z" fill="#6978C6"/>
<path d="M75.3323 32.6992L49.9993 4.58574L24.6661 32.6992L23.1499 31.333L49.2413 2.37832C49.4349 2.16367 49.7103 2.04102 49.9993 2.04102C50.2884 2.04102 50.5638 2.16367 50.7573 2.37832L76.8485 31.333L75.3323 32.6992Z" fill="#F74C83"/>
<path d="M98.0598 27.91V63.8406C96.5312 69.159 94.1433 74.1141 91.0557 78.5447H8.94551C5.85781 74.1141 3.46992 69.159 1.94141 63.8406V27.91C1.94141 24.2609 4.90059 21.3018 8.54961 21.3018H91.4496C95.1006 21.3018 98.0598 24.2609 98.0598 27.91Z" fill="#FFD255"/>
<path d="M92.7591 24.0714C92.3489 23.9286 91.906 23.853 91.4489 23.853H8.54893C8.0917 23.853 7.65088 23.9286 7.24072 24.0714C5.64268 24.6163 4.4917 26.1306 4.4917 27.9103V70.7429C5.27744 72.4612 6.15693 74.1286 7.12236 75.7347C7.56729 75.9021 8.04678 75.9939 8.54893 75.9939H91.4489C91.9509 75.9939 92.4325 75.9021 92.8774 75.7327C93.8427 74.1286 94.7224 72.4634 95.506 70.747V27.9101C95.506 26.1306 94.3571 24.6163 92.7591 24.0714ZM92.4448 71.9366C92.4448 72.4857 91.9999 72.9325 91.4489 72.9325H8.54893C7.9999 72.9325 7.55303 72.4857 7.55303 71.9366V27.9101C7.55303 27.361 7.9999 26.9142 8.54893 26.9142H91.4489C91.9999 26.9142 92.4448 27.361 92.4448 27.9101V71.9366Z" fill="#F2973D"/>
<path d="M80.9451 33.5884H72.1621H63.3791H54.5959H45.8129H37.0299H28.2469H19.4637H14.7912C12.5211 33.5884 10.6807 35.4288 10.6807 37.6989V57.7681C10.6807 60.1935 12.6469 62.1595 15.0721 62.1595C17.4975 62.1595 19.4635 60.1933 19.4635 57.7681V54.9864C19.4635 52.561 21.4297 50.595 23.8549 50.595C26.2803 50.595 28.2463 52.5612 28.2463 54.9864V55.4552C28.2463 57.8806 30.2125 59.8466 32.6377 59.8466C35.0631 59.8466 37.0291 61.8128 37.0291 64.238V65.7272C37.0291 68.1526 38.9953 70.1187 41.4205 70.1187C43.8459 70.1187 45.8119 68.1524 45.8119 65.7272V56.3468C45.8119 53.9214 47.7781 51.9554 50.2033 51.9554C52.6287 51.9554 54.5947 53.9216 54.5947 56.3468V60.7616C54.5947 63.187 56.5609 65.153 58.9861 65.153C61.4115 65.153 63.3775 63.1868 63.3775 60.7616V60.2927C63.3775 57.8673 65.3438 55.9013 67.769 55.9013C70.1943 55.9013 72.1604 57.8675 72.1604 60.2927V64.4886C72.1604 66.914 74.1266 68.88 76.5518 68.88C78.9771 68.88 80.9432 66.9138 80.9432 64.4886V59.8845C80.9432 57.4591 82.9094 55.4931 85.3346 55.4931C87.76 55.4931 89.726 53.5269 89.726 51.1017V37.6989C89.726 35.4288 87.8856 33.5884 85.6154 33.5884H80.9447H80.9451Z" fill="#F7EFC6"/>
<path d="M26.3247 47.2242C26.1274 47.7998 25.3874 48.0793 24.631 48.0793C23.8909 48.0793 23.1017 47.7996 22.9702 47.2242L22.1151 43.327L21.2601 47.2242C21.1284 47.7998 20.3392 48.0793 19.5991 48.0793C18.8427 48.0793 18.0862 47.7996 17.9054 47.2242L14.6329 37.1934C14.6165 37.1439 14.6001 37.0617 14.6001 36.9795C14.6001 36.4203 15.521 35.96 16.2608 35.96C16.6556 35.96 16.9845 36.0916 17.0831 36.4369L19.5827 44.8729L20.8817 39.3146C20.9806 38.8705 21.556 38.6404 22.1149 38.6404C22.6741 38.6404 23.2497 38.8707 23.3481 39.3146L24.6474 44.8729L27.1468 36.4369C27.2456 36.0916 27.5743 35.96 27.969 35.96C28.7091 35.96 29.6298 36.4203 29.6298 36.9795C29.6298 37.0617 29.6134 37.1439 29.597 37.1934L26.3247 47.2242Z" fill="white"/>
<path d="M33.1341 40.9746H35.6007C36.0942 40.9746 36.3735 41.4516 36.3735 41.9777C36.3735 42.4219 36.1433 42.9479 35.6007 42.9479H33.1341V45.7434H37.5411C38.0347 45.7434 38.314 46.2695 38.314 46.8781C38.314 47.4043 38.0837 47.9799 37.5411 47.9799H31.687C31.128 47.9799 30.5688 47.7168 30.5688 47.1904V36.7484C30.5688 36.2223 31.128 35.959 31.687 35.959H37.5411C38.0837 35.959 38.314 36.5346 38.314 37.0607C38.314 37.6693 38.0343 38.1955 37.5411 38.1955H33.1341V40.9746Z" fill="white"/>
<path d="M40.5508 47.9802C39.9918 47.9802 39.4326 47.7171 39.4326 47.1907V36.7323C39.4326 36.1897 40.074 35.9595 40.7152 35.9595C41.3564 35.9595 41.9979 36.1897 41.9979 36.7323V45.7438H45.7471C46.2406 45.7438 46.4871 46.3028 46.4871 46.862C46.4871 47.421 46.2404 47.9802 45.7471 47.9802H40.5508Z" fill="white"/>
<path d="M51.4374 38.1961C50.5001 38.1961 49.9573 38.7223 49.9573 39.8406V44.1984C49.9573 45.3166 50.4999 45.843 51.4536 45.843C52.769 45.843 52.8513 44.8398 52.9007 44.1984C52.9501 43.59 53.5093 43.4256 54.1671 43.4256C55.055 43.4256 55.4661 43.6559 55.4661 44.6426C55.4661 46.8297 53.6901 48.0795 51.3386 48.0795C49.1845 48.0795 47.3921 47.027 47.3921 44.1986V39.8408C47.3921 37.0125 49.1845 35.96 51.3386 35.96C53.6901 35.96 55.4661 37.1441 55.4661 39.2324C55.4661 40.2191 55.0552 40.4494 54.1835 40.4494C53.4929 40.4494 52.9337 40.2686 52.9009 39.6766C52.8847 39.2486 52.8353 38.1961 51.4374 38.1961Z" fill="white"/>
<path d="M56.6338 44.1984V39.8408C56.6338 37.0125 58.3934 35.96 60.6625 35.96C62.9316 35.96 64.7078 37.0125 64.7078 39.8408V44.1986C64.7078 47.027 62.9318 48.0795 60.6625 48.0795C58.3932 48.0795 56.6338 47.0272 56.6338 44.1984ZM62.1424 39.841C62.1424 38.7063 61.5834 38.1965 60.6623 38.1965C59.7412 38.1965 59.1988 38.7063 59.1988 39.841V44.1988C59.1988 45.3336 59.7414 45.8434 60.6623 45.8434C61.5832 45.8434 62.1424 45.3336 62.1424 44.1988V39.841Z" fill="white"/>
<path d="M72.1413 43.7215C71.9276 44.0834 71.5987 44.1984 71.2862 44.1984C70.9903 44.1984 70.6776 44.0998 70.4806 43.7215L68.9183 40.8604V47.1914C68.9183 47.7178 68.2769 47.9809 67.6356 47.9809C66.9944 47.9809 66.353 47.7178 66.353 47.1914V37.2426C66.353 36.3053 66.9944 35.96 67.6356 35.96C68.5565 35.96 68.9511 36.0588 69.6255 37.2426L71.3192 40.2025L73.013 37.2426C73.6872 36.0588 74.0817 35.96 75.0028 35.96C75.6606 35.96 76.2854 36.3053 76.2854 37.2426V47.1914C76.2854 47.7178 75.6442 47.9809 75.0028 47.9809C74.3614 47.9809 73.7202 47.7178 73.7202 47.1914V41.0248L72.1413 43.7215Z" fill="white"/>
<path d="M80.6272 40.9746H83.0938C83.5874 40.9746 83.8667 41.4516 83.8667 41.9777C83.8667 42.4219 83.6364 42.9479 83.0938 42.9479H80.6272V45.7434H85.0343C85.5278 45.7434 85.8071 46.2695 85.8071 46.8781C85.8071 47.4043 85.5769 47.9799 85.0343 47.9799H79.1802C78.6212 47.9799 78.062 47.7168 78.062 47.1904V36.7484C78.062 36.2223 78.6212 35.959 79.1802 35.959H85.0343C85.5769 35.959 85.8071 36.5346 85.8071 37.0607C85.8071 37.6693 85.5274 38.1955 85.0343 38.1955H80.6272V40.9746Z" fill="white"/>
<path d="M50.0003 8.07529C51.6425 8.07529 52.9737 6.74404 52.9737 5.10186C52.9737 3.45967 51.6425 2.12842 50.0003 2.12842C48.3581 2.12842 47.0269 3.45967 47.0269 5.10186C47.0269 6.74404 48.3581 8.07529 50.0003 8.07529Z" fill="#FFD255"/>
</svg>
