<svg width="70" height="70" viewBox="0 0 70 70" fill="none" xmlns="http://www.w3.org/2000/svg">
<path d="M30.6406 41.5572L42.0257 35L30.6406 28.4429V41.5572Z" fill="#FF0000"/>
<path d="M35 0C15.673 0 0 15.673 0 35C0 54.327 15.673 70 35 70C54.327 70 70 54.327 70 35C70 15.673 54.327 0 35 0ZM56.8697 35.0358C56.8697 35.0358 56.8697 42.1339 55.9692 45.5567C55.4646 47.4302 53.9874 48.9074 52.1139 49.4115C48.6911 50.3125 35 50.3125 35 50.3125C35 50.3125 21.3447 50.3125 17.8861 49.3758C16.0126 48.8716 14.5354 47.3939 14.0308 45.5204C13.1298 42.1339 13.1298 35 13.1298 35C13.1298 35 13.1298 27.9024 14.0308 24.4796C14.5349 22.6061 16.0484 21.0926 17.8861 20.5885C21.3089 19.6875 35 19.6875 35 19.6875C35 19.6875 48.6911 19.6875 52.1139 20.6242C53.9874 21.1284 55.4646 22.6061 55.9692 24.4796C56.906 27.9024 56.8697 35.0358 56.8697 35.0358Z" fill="#FF0000"/>
</svg>
