<svg width="28" height="28" viewBox="0 0 28 28" fill="none" xmlns="http://www.w3.org/2000/svg">
<path d="M13.9999 19.834C14.2721 19.834 14.5006 19.7416 14.6853 19.5569C14.8701 19.3722 14.9624 19.1437 14.9624 18.8715C14.9624 18.5993 14.8701 18.3708 14.6853 18.1861C14.5006 18.0013 14.2721 17.909 13.9999 17.909C13.7277 17.909 13.4992 18.0013 13.3145 18.1861C13.1298 18.3708 13.0374 18.5993 13.0374 18.8715C13.0374 19.1437 13.1298 19.3722 13.3145 19.5569C13.4992 19.7416 13.7277 19.834 13.9999 19.834ZM13.2124 15.3715H14.9624V7.99232H13.2124V15.3715ZM13.9999 25.6673C12.4055 25.6673 10.8985 25.3611 9.47909 24.7486C8.05964 24.1361 6.82006 23.3 5.76034 22.2402C4.70061 21.1805 3.8645 19.9409 3.252 18.5215C2.6395 17.102 2.33325 15.5854 2.33325 13.9715C2.33325 12.377 2.6395 10.8701 3.252 9.45065C3.8645 8.03121 4.70061 6.79648 5.76034 5.74648C6.82006 4.69648 8.05964 3.86523 9.47909 3.25273C10.8985 2.64023 12.4152 2.33398 14.0291 2.33398C15.6235 2.33398 17.1305 2.64023 18.5499 3.25273C19.9694 3.86523 21.2041 4.69648 22.2541 5.74648C23.3041 6.79648 24.1353 8.03121 24.7478 9.45065C25.3603 10.8701 25.6666 12.3868 25.6666 14.0007C25.6666 15.5951 25.3603 17.102 24.7478 18.5215C24.1353 19.9409 23.3041 21.1805 22.2541 22.2402C21.2041 23.3 19.9694 24.1361 18.5499 24.7486C17.1305 25.3611 15.6138 25.6673 13.9999 25.6673ZM14.0291 23.9173C16.7708 23.9173 19.1041 22.95 21.0291 21.0152C22.9541 19.0805 23.9166 16.7326 23.9166 13.9715C23.9166 11.2298 22.9541 8.89648 21.0291 6.97148C19.1041 5.04648 16.761 4.08398 13.9999 4.08398C11.2583 4.08398 8.92006 5.04648 6.98534 6.97148C5.05061 8.89648 4.08325 11.2395 4.08325 14.0007C4.08325 16.7423 5.05061 19.0805 6.98534 21.0152C8.92006 22.95 11.268 23.9173 14.0291 23.9173Z" fill="#DB2D0A"/>
</svg>
