<svg width="120" height="120" viewBox="0 0 120 120" fill="none" xmlns="http://www.w3.org/2000/svg">
<path d="M120 59.9693C120 93.1151 93.1013 119.939 60 119.939C26.8373 119.939 0 93.0537 0 59.9693C0 26.8235 26.8987 0 60 0C93.1013 0 120 26.8849 120 59.9693Z" fill="#F4973A"/>
<path d="M58.6489 120C59.0787 120 59.5087 120 59.9385 120C91.8116 120 117.912 95.1406 119.877 63.7135L86.96 37.1969L71.9754 48.9207L65.8955 62.6087L58.6489 74.578H46.6734L25.6703 75.6828L7.00098 80.4092L58.6489 120Z" fill="#AF5D14"/>
<path d="M53.9812 78.9975C53.9812 78.9975 46.1204 73.2276 32.1183 74.8849C18.1163 76.4808 13.8788 78.2609 8.96582 78.9975C8.96582 78.9975 13.6946 79.6113 20.3885 78.3837C27.0825 77.156 45.0764 74.087 53.2442 79.1816L54.7181 78.9975" fill="#DDDDDD"/>
<path d="M64.299 79.4885H8.96631L18.7309 71.9386H64.299V79.4885Z" fill="#3A3A3A"/>
<path d="M55.5782 79.4885V81.6982L7.00098 80.4706C7.00098 80.4706 17.3183 71.9386 18.7307 71.9386L8.96616 79.4885H55.5782Z" fill="#2E82C6"/>
<path d="M64.2987 79.4885H110.911L101.146 71.9386H55.5781L64.2987 79.4885Z" fill="#3A3A3A"/>
<path d="M64.2988 79.4885V81.6982L112.876 80.4706C112.876 80.4706 102.559 71.9386 101.146 71.9386L110.911 79.4885H64.2988Z" fill="#2E82C6"/>
<path d="M53.9814 79.4885C53.9814 79.4885 55.0254 83.9693 59.6928 83.9693C64.3601 83.9693 66.0183 79.4885 66.0183 79.4885H53.9814Z" fill="#2E82C6"/>
<path d="M53.9814 78.9974C53.9814 78.9974 56.5607 81.3913 60.0613 81.3913C63.5618 81.3913 65.8954 78.9974 65.8954 78.9974H53.9814Z" fill="#3A3A3A"/>
<path d="M111.771 74.578L110.112 72.6752C101.699 71.6931 86.96 71.5703 86.96 71.5703C100.225 70.1585 111.095 71.5703 111.095 71.5703C109.928 66.6598 106.735 65.2481 106.735 65.2481C79.6519 67.5805 73.265 72.3069 73.265 72.3069C84.4421 62.5473 108.516 63.2225 108.516 63.2225C102.927 48.2455 94.6366 45.913 94.6366 45.913C80.6959 53.647 66.0183 71.9386 66.0183 71.9386C79.0992 51.2532 95.1893 43.3964 95.1893 43.3964L89.8464 42.2302C73.8791 54.9974 66.0183 68.1943 66.0183 68.1943C72.3438 54.0153 90.5219 39.8977 90.5219 39.8977L87.3899 39.4066C79.3448 45.2992 68.8433 60.2762 68.8433 60.2762C74.9846 48.6138 86.96 37.1969 86.96 37.1969H79.4062C63.8689 46.711 60.7983 68.6854 60.4298 72C60.0613 68.624 56.9907 46.711 41.4533 37.1969H33.8996C33.8996 37.1969 45.875 48.6138 52.0163 60.2762C52.0163 60.2762 41.5148 45.3606 33.4697 39.4066L30.3377 39.8977C30.3377 39.8977 48.5158 53.9539 54.8413 68.1943C54.8413 68.1943 46.9805 54.9974 31.0132 42.2302L25.6703 43.3964C25.6703 43.3964 41.7604 51.2532 54.8413 71.9386C54.8413 71.9386 40.1637 53.647 26.2231 45.913C26.2231 45.913 17.9324 48.1841 12.3438 63.2225C12.3438 63.2225 36.049 65.248 46.1821 72.1841C46.1821 72.1841 30.3991 65.4936 14.1862 65.2481C14.1862 65.2481 10.9927 66.6598 9.82591 71.5703C9.82591 71.5703 20.6959 70.1585 33.961 71.5703C33.961 71.5703 19.222 71.6931 10.8085 72.6752L9.15039 74.578L14.3705 73.5959L9.33462 78.6905C9.33462 78.6905 17.0112 78.9974 23.9508 77.4629C30.8904 75.9284 48.5772 73.0434 55.2711 78.6905H65.22C71.8525 73.0434 90.2149 75.9284 97.1545 77.4629C104.094 78.9974 111.771 78.6905 111.771 78.6905L106.735 73.5959L111.771 74.578Z" fill="#EFF4F2"/>
</svg>
