<svg width="120" height="120" viewBox="0 0 120 120" fill="none" xmlns="http://www.w3.org/2000/svg">
<path d="M120 59.9694C120 93.1151 93.1013 119.939 60 119.939C26.8373 119.939 0 93.0537 0 59.9694C0 26.8236 26.8987 0.000104896 60 0.000104896C93.1013 -0.0612761 120 26.8236 120 59.9694Z" fill="#9FD0D4"/>
<path d="M120 59.9694C120 58.3121 119.939 56.6548 119.816 54.9975L99.2426 33.2073L24.0737 85.5653L60 120C93.1014 119.939 120 93.1151 120 59.9694Z" fill="#549193"/>
<path d="M91.1362 61.8721C91.1362 61.8721 89.6623 65.8005 91.996 67.7647L80.6961 85.9949L24.7493 84.5831C24.7493 84.5831 23.0912 77.0332 24.9949 74.7621L80.5733 76.1739L91.1362 61.8721Z" fill="#F9F4F4"/>
<path d="M80.5735 76.1739L24.7495 74.8235L42.6205 57.33L93.9 58.1893L80.5735 76.1739Z" fill="#FF4200"/>
<path d="M91.9962 67.7647L80.6964 85.9949L24.7496 84.5831C24.7496 84.5831 23.5827 76.7263 25.1795 74.7621C25.1795 74.7621 25.7322 74.2711 24.7496 74.7621C23.3371 75.4373 20.8806 80.7775 24.0126 85.5652L81.986 87.5294L94.2685 67.7647H91.9962Z" fill="#FF4200"/>
<path d="M80.3888 85.9949C77.7481 80.3478 80.1432 76.358 80.266 76.1739H80.573C80.573 76.2353 78.1779 80.7161 80.6959 85.9949H80.3888Z" fill="#D0D1D1"/>
<path d="M78.4239 77.0946L24.9336 75.3146V75.1304L78.4239 76.9105V77.0946Z" fill="#D0D1D1"/>
<path d="M24.9192 76.0496L24.9141 76.2337L78.4443 77.7306L78.4495 77.5466L24.9192 76.0496Z" fill="#D0D1D1"/>
<path d="M78.4239 79.5498L24.9336 76.9718V76.7877L78.4239 79.3656V79.5498Z" fill="#D0D1D1"/>
<path d="M78.4239 80.2251L24.688 78.2609L24.7494 78.0767L78.4239 80.0409V80.2251Z" fill="#D0D1D1"/>
<path d="M24.9055 79.0611L24.8989 79.2451L78.4185 81.1542L78.4251 80.9702L24.9055 79.0611Z" fill="#D0D1D1"/>
<path d="M24.8969 80.4163L24.8916 80.6004L78.4219 82.1285L78.4271 81.9444L24.8969 80.4163Z" fill="#D0D1D1"/>
<path d="M78.4239 83.4782L24.9336 81.7595V81.5754L78.4239 83.2941V83.4782Z" fill="#D0D1D1"/>
<path d="M79.1608 84.7672L24.9336 83.4782V83.2941L79.1608 84.5831V84.7672Z" fill="#D0D1D1"/>
<path d="M24.9192 82.4396L24.9141 82.6237L78.4443 84.1057L78.4494 83.9216L24.9192 82.4396Z" fill="#D0D1D1"/>
<path d="M80.7571 76.5422L80.6343 76.4194L89.9076 64.2046L90.0304 64.3273L80.7571 76.5422Z" fill="#D0D1D1"/>
<path d="M89.9123 65.3247L80.6528 77.5656L80.7998 77.6767L90.0593 65.4358L89.9123 65.3247Z" fill="#D0D1D1"/>
<path d="M80.3889 79.4884L80.2661 79.3657L89.9079 66.7212L90.0307 66.7826L80.3889 79.4884Z" fill="#D0D1D1"/>
<path d="M80.0207 81.3299L79.8364 81.2071L89.8467 67.7033L90.0309 67.8261L80.0207 81.3299Z" fill="#D0D1D1"/>
<path d="M80.3889 82.1278L80.2661 82.0051L90.7062 67.7033L90.8291 67.8261L80.3889 82.1278Z" fill="#D0D1D1"/>
<path d="M80.3889 83.3555L80.2661 83.2327L90.7062 68.8082L90.8291 68.8696L80.3889 83.3555Z" fill="#D0D1D1"/>
<path d="M80.7571 84.7059L80.6343 84.5831L89.8462 70.3427L90.0304 70.4041L80.7571 84.7059Z" fill="#D0D1D1"/>
<path d="M88.9253 49.4731C88.9253 49.4731 87.4514 53.4015 89.785 55.3657L78.4851 73.5959L22.5384 72.1841C22.5384 72.1841 20.8802 64.6343 22.784 62.3632L78.3623 63.7749L88.9253 49.4731Z" fill="#F9F4F4"/>
<path d="M78.301 63.775L22.4771 62.4246L40.3481 44.9924L91.6275 45.7903L78.301 63.775Z" fill="#3B4E55"/>
<path d="M89.7853 55.3657L78.4854 73.5959L22.5386 72.1841C22.5386 72.1841 21.3718 64.3273 22.9685 62.3632C22.9685 62.3632 23.5212 61.8721 22.5386 62.3632C21.1262 63.0383 18.6697 68.3785 21.8017 73.1662L79.7751 75.1304L92.0576 55.3657H89.7853Z" fill="#3B4E55"/>
<path d="M78.1168 73.5959C75.4761 67.9488 77.8712 63.959 77.994 63.7749H78.3011C78.3011 63.8363 75.906 68.3171 78.4239 73.5959H78.1168Z" fill="#D0D1D1"/>
<path d="M76.1514 64.6956L22.6611 62.9156V62.7928L76.1514 64.5115V64.6956Z" fill="#D0D1D1"/>
<path d="M76.1514 65.3708L22.6611 63.8363V63.6522L76.1514 65.1867V65.3708Z" fill="#D0D1D1"/>
<path d="M22.6865 64.432L22.6777 64.6159L76.1705 67.1594L76.1793 66.9755L22.6865 64.432Z" fill="#D0D1D1"/>
<path d="M22.4927 65.6678L22.4858 65.8518L76.1842 67.8405L76.191 67.6565L22.4927 65.6678Z" fill="#D0D1D1"/>
<path d="M22.6872 66.6979L22.6807 66.882L76.2002 68.7923L76.2068 68.6082L22.6872 66.6979Z" fill="#D0D1D1"/>
<path d="M76.1514 69.7289L22.6611 68.2557V68.0716L76.1514 69.6061V69.7289Z" fill="#D0D1D1"/>
<path d="M76.1514 71.0792L22.6611 69.4219V69.2378L76.1514 70.8951V71.0792Z" fill="#D0D1D1"/>
<path d="M76.8884 72.3683L22.6611 71.0793V70.8951L76.8884 72.1841V72.3683Z" fill="#D0D1D1"/>
<path d="M76.1514 71.7544L22.6611 70.2199V70.0972L76.1514 71.5703V71.7544Z" fill="#D0D1D1"/>
<path d="M78.4851 64.1432L78.3623 64.0204L87.6356 51.8056L87.7584 51.9284L78.4851 64.1432Z" fill="#D0D1D1"/>
<path d="M78.4851 65.3094L78.3623 65.1867L87.6356 52.9719L87.7584 53.0946L78.4851 65.3094Z" fill="#D0D1D1"/>
<path d="M78.1779 67.0894L77.9937 67.0281L87.6354 54.3222L87.7582 54.445L78.1779 67.0894Z" fill="#D0D1D1"/>
<path d="M87.6023 55.3381L77.5986 68.8618L77.7468 68.9712L87.7504 55.4476L87.6023 55.3381Z" fill="#D0D1D1"/>
<path d="M78.1779 69.7289L77.9937 69.6061L88.4338 55.3657L88.5566 55.4271L78.1779 69.7289Z" fill="#D0D1D1"/>
<path d="M88.3601 56.3916L78.043 70.9008L78.1931 71.0075L88.5102 56.4983L88.3601 56.3916Z" fill="#D0D1D1"/>
<path d="M87.6429 57.9749L78.3633 72.2247L78.5177 72.3252L87.7973 58.0754L87.6429 57.9749Z" fill="#D0D1D1"/>
<path d="M96.479 36.8901C96.479 36.8901 95.0051 40.8185 97.3388 42.7827L86.0388 61.0129L30.0921 59.6011C30.0921 59.6011 28.4339 52.0512 30.3377 49.7801L85.916 51.1919L96.479 36.8901Z" fill="#F9F4F4"/>
<path d="M85.9161 51.1919L30.0308 49.8415L47.9632 32.4093L99.1812 33.2073L85.9161 51.1919Z" fill="#F6A14E"/>
<path d="M97.3385 42.7827L86.0386 61.0128L30.0919 59.601C30.0919 59.601 28.925 51.7443 30.5218 49.7801C30.5218 49.7801 31.0745 49.289 30.0919 49.7801C28.6794 50.4553 26.2229 55.7954 29.3549 60.5831L87.3283 62.5473L99.6108 42.7827H97.3385Z" fill="#F6A14E"/>
<path d="M85.7316 61.0128C83.0908 55.3657 85.4859 51.376 85.6087 51.1918H85.9158C85.9158 51.2532 83.5207 55.734 86.0386 61.0128H85.7316Z" fill="#D0D1D1"/>
<path d="M83.7666 52.1126L30.2764 50.3939V50.2098L83.7666 51.9285V52.1126Z" fill="#D0D1D1"/>
<path d="M83.7666 52.7878L30.2764 51.2533V51.0692L83.7666 52.6037V52.7878Z" fill="#D0D1D1"/>
<path d="M30.2788 51.8282L30.27 52.0121L83.7628 54.5556L83.7715 54.3716L30.2788 51.8282Z" fill="#D0D1D1"/>
<path d="M30.0825 53.1264L30.0757 53.3104L83.774 55.2985L83.7808 55.1145L30.0825 53.1264Z" fill="#D0D1D1"/>
<path d="M30.279 54.0951L30.2725 54.2792L83.792 56.1883L83.7986 56.0043L30.279 54.0951Z" fill="#D0D1D1"/>
<path d="M83.7666 57.1459L30.2764 55.6727V55.4886L83.7666 57.0231V57.1459Z" fill="#D0D1D1"/>
<path d="M83.7666 58.4963L30.2764 56.839V56.6548L83.7666 58.3121V58.4963Z" fill="#D0D1D1"/>
<path d="M84.5036 59.7853L30.2764 58.4963V58.3122L84.5036 59.6012V59.7853Z" fill="#D0D1D1"/>
<path d="M83.7666 59.1714L30.2764 57.6983V57.5142L83.7666 58.9873V59.1714Z" fill="#D0D1D1"/>
<path d="M95.2042 39.235L85.9248 51.4606L86.0716 51.5719L95.351 39.3463L95.2042 39.235Z" fill="#D0D1D1"/>
<path d="M95.1795 40.409L85.9292 52.6561L86.0762 52.767L95.3265 40.52L95.1795 40.409Z" fill="#D0D1D1"/>
<path d="M85.7317 54.5065L85.6089 54.4451L95.1892 41.7393L95.3735 41.862L85.7317 54.5065Z" fill="#D0D1D1"/>
<path d="M95.1975 42.7539L85.1904 56.2742L85.3385 56.3837L95.3456 42.8634L95.1975 42.7539Z" fill="#D0D1D1"/>
<path d="M85.7317 57.1458L85.6089 57.023L96.049 42.7827L96.1718 42.844L85.7317 57.1458Z" fill="#D0D1D1"/>
<path d="M85.7317 58.3735L85.6089 58.2508L96.049 43.8262L96.1718 43.949L85.7317 58.3735Z" fill="#D0D1D1"/>
<path d="M86.1004 59.7239L85.9775 59.6625L95.1894 45.3607L95.3736 45.4835L86.1004 59.7239Z" fill="#D0D1D1"/>
</svg>
