<svg width="100" height="100" viewBox="0 0 100 100" fill="none" xmlns="http://www.w3.org/2000/svg">
<path d="M81.0546 21.4844H2.92964C1.91421 21.4844 0.971238 20.9586 0.437449 20.0949C-0.0963402 19.2313 -0.144778 18.1525 0.309129 17.2445L8.12163 1.61953C8.61811 0.626953 9.63237 0 10.7421 0H35.1562L41.9921 3.90625L48.8281 0H73.2421C74.3519 0 75.3661 0.626953 75.8626 1.61953L83.6751 17.2445C84.1292 18.1525 84.0806 19.2313 83.5468 20.0949C83.013 20.9586 82.0701 21.4844 81.0546 21.4844Z" fill="#D8AA5C"/>
<path d="M81.0547 21.4844C82.0701 21.4844 83.0131 20.9586 83.5469 20.0949C84.0807 19.2313 84.1291 18.1525 83.6752 17.2445L75.8627 1.61953C75.3662 0.626953 74.3519 0 73.2422 0H48.8281L41.9922 3.90625V21.4844H81.0547Z" fill="#C8661C"/>
<path d="M48.8281 21.4844H35.1562V0H48.8281V21.4844Z" fill="#FFFA8C"/>
<path d="M41.9922 0H48.8281V21.4844H41.9922V0Z" fill="#FFC178"/>
<path d="M0 18.5547V69.3359C0 70.9539 1.31172 72.2656 2.92969 72.2656H81.0547C82.6727 72.2656 83.9844 70.9539 83.9844 69.3359V18.5547H48.8281L41.9922 22.4609L35.1562 18.5547H0Z" fill="#C8661C"/>
<path d="M81.0547 72.2656C82.6727 72.2656 83.9844 70.9539 83.9844 69.3359V18.5547H48.8281L41.9922 22.4609V72.2656H81.0547Z" fill="#8E4712"/>
<path d="M35.1562 18.5547V38.0859C35.1562 39.7039 36.468 41.0156 38.0859 41.0156H45.8984C47.5164 41.0156 48.8281 39.7039 48.8281 38.0859V18.5547H35.1562Z" fill="#FFC178"/>
<path d="M41.9922 41.0156H45.8984C47.5164 41.0156 48.8281 39.7039 48.8281 38.0859V18.5547H41.9922V41.0156Z" fill="#FF9D21"/>
<path d="M26.3672 62.5H14.6484C13.0305 62.5 11.7188 61.1883 11.7188 59.5703C11.7188 57.9523 13.0305 56.6406 14.6484 56.6406H26.3672C27.9852 56.6406 29.2969 57.9523 29.2969 59.5703C29.2969 61.1883 27.9852 62.5 26.3672 62.5Z" fill="#6B61B1"/>
<path d="M26.3672 50.7812H14.6484C13.0305 50.7812 11.7188 49.4695 11.7188 47.8516C11.7188 46.2336 13.0305 44.9219 14.6484 44.9219H26.3672C27.9852 44.9219 29.2969 46.2336 29.2969 47.8516C29.2969 49.4695 27.9852 50.7812 26.3672 50.7812Z" fill="#6B61B1"/>
<path d="M77.5391 100C77.2555 100 76.9719 99.9588 76.6973 99.8764C70.4014 97.9877 64.9994 94.2018 61.0758 88.9283C57.1521 83.6547 55.0781 77.3928 55.0781 70.8197V54.1016C55.0781 52.4836 56.3898 51.1719 58.0078 51.1719C61.71 51.1719 65.0383 49.1148 66.6937 45.8037L67.1061 44.9791C67.6023 43.9863 68.6168 43.3594 69.7266 43.3594H85.3516C86.4613 43.3594 87.4758 43.9863 87.9721 44.9789L88.3844 45.8037C90.0398 49.1148 93.3682 51.1719 97.0703 51.1719C98.6883 51.1719 100 52.4836 100 54.1016V70.8197C100 77.3928 97.926 83.6547 94.0023 88.9283C90.0787 94.2018 84.6768 97.9877 78.3809 99.8764C78.1062 99.9588 77.8227 100 77.5391 100Z" fill="#9DDFF6"/>
<path d="M97.0703 51.1719C93.3682 51.1719 90.0398 49.1148 88.3844 45.8039L87.9721 44.9791C87.4758 43.9863 86.4613 43.3594 85.3516 43.3594H77.5391V100C77.8227 100 78.1062 99.9588 78.3809 99.8764C84.6768 97.9877 90.0787 94.2018 94.0023 88.9283C97.926 83.6547 100 77.3928 100 70.8197V54.1016C100 52.4836 98.6883 51.1719 97.0703 51.1719Z" fill="#6BA7FF"/>
<path d="M60.9375 56.7584V70.8199C60.9375 81.4168 67.5725 90.6217 77.5391 93.9957C87.5057 90.6217 94.1406 81.4168 94.1406 70.8199V56.7584C89.7068 55.9215 85.8521 53.2037 83.5693 49.2188H71.5088C69.226 53.2037 65.3713 55.9215 60.9375 56.7584Z" fill="#F5F5FF"/>
<path d="M83.5693 49.2188H77.5391V93.9955C87.5057 90.6215 94.1406 81.4166 94.1406 70.8197V56.7582C89.7068 55.9215 85.8521 53.2035 83.5693 49.2188Z" fill="#E2E7FA"/>
<path d="M74.777 80.1335C74.0272 80.1335 73.2774 79.8476 72.7055 79.2753L67.1813 73.7511C66.0371 72.6069 66.0371 70.7521 67.1813 69.6079C68.3252 68.4638 70.1803 68.4638 71.3245 69.6079L74.7772 73.0605L83.7541 64.0837C84.8981 62.9396 86.7532 62.9396 87.8973 64.0837C89.0414 65.2278 89.0414 67.0827 87.8973 68.2269L76.8489 79.2753C76.2766 79.8476 75.5268 80.1335 74.777 80.1335Z" fill="#6B61B1"/>
<path d="M83.7539 64.0837L77.5391 70.2985V78.5849L87.8971 68.2269C89.0412 67.0827 89.0412 65.2278 87.8971 64.0837C86.7529 62.9396 84.8979 62.9396 83.7539 64.0837Z" fill="#453D81"/>
</svg>
