<svg width="70" height="70" viewBox="0 0 70 70" fill="none" xmlns="http://www.w3.org/2000/svg">
<path d="M9.84375 54.2773H7.31445C3.28125 54.2773 0 50.9961 0 46.9629C0 42.9297 3.28125 39.6484 7.31445 39.6484H8.88672V43.75H7.31445C5.54285 43.75 4.10156 45.1913 4.10156 46.9629C4.10156 48.7345 5.54285 50.1758 7.31445 50.1758H9.84375V54.2773Z" fill="#6354B1"/>
<path d="M10.1172 26.25H7.31445C3.28125 26.25 0 22.9688 0 18.9355C0 14.9023 3.28125 11.6211 7.31445 11.6211H8.88672V15.7227H7.31445C5.54285 15.7227 4.10156 17.1639 4.10156 18.9355C4.10156 20.7071 5.54285 22.1484 7.31445 22.1484H10.1172V26.25Z" fill="#6354B1"/>
<path d="M62.0703 57.9688H70V40.6055L66.1719 39.2383L62.0703 40.6055L60.5664 49.082L62.0703 57.9688Z" fill="#FFDD46"/>
<path d="M62.0703 40.6055H70V23.2422L66.1719 22.4219L62.0703 23.2422L60.1562 31.7188L62.0703 40.6055Z" fill="#FFB54C"/>
<path d="M62.0703 23.2422H70V5.87891H62.0703L60.5664 14.6289L62.0703 23.2422Z" fill="#00DC7B"/>
<path d="M8.88672 0.683594H62.0703V60.0195H8.88672V0.683594Z" fill="#E2E1F4"/>
<path d="M8.88672 60.0195L8.88781 62.0852C8.91666 66.0725 12.1841 69.3164 16.1714 69.3164H62.0703V60.0195H8.88672Z" fill="#ACA6D6"/>
<path d="M35.5469 60.0195H62.0703V69.3164H35.5469V60.0195Z" fill="#6354B1"/>
<path d="M8.33984 39.6484H18.5938V43.75H8.33984V39.6484Z" fill="#6354B1"/>
<path d="M7.92969 11.6211H18.5938V15.7227H7.92969V11.6211Z" fill="#6354B1"/>
<path d="M35.5469 0.683594H62.0703V60.0195H35.5469V0.683594Z" fill="#ACA6D6"/>
<path d="M35.5454 16.1328C32.3741 16.1328 29.8032 18.7037 29.8032 21.875C29.8032 25.0463 32.3741 27.6172 35.5454 27.6172H35.5468L36.6405 21.875L35.5468 16.1328C35.5464 16.1328 35.5458 16.1328 35.5454 16.1328Z" fill="#6354B1"/>
<path d="M41.2877 21.875C41.2877 18.7041 38.7175 16.1336 35.5469 16.1328V27.6172C38.7175 27.6164 41.2877 25.0459 41.2877 21.875Z" fill="#463B84"/>
<path d="M35.5455 31.7188C30.6086 31.7188 26.5959 35.685 26.5234 40.6055H35.5469L36.7773 36.3672L35.5469 31.7188C35.5465 31.7188 35.5459 31.7188 35.5455 31.7188Z" fill="#6354B1"/>
<path d="M35.5469 31.7188V40.6055H44.5676C44.4951 35.6854 40.4831 31.7196 35.5469 31.7188Z" fill="#463B84"/>
</svg>
