<svg width="32" height="32" viewBox="0 0 32 32" fill="none" xmlns="http://www.w3.org/2000/svg">
<g clip-path="url(#clip0)">
<path d="M27.5865 13.7931H21.5176V8.27588H26.4831L27.5865 13.7931Z" fill="#B4E1FA"/>
<path d="M1.10247 23.1725H30.8956C31.2003 23.1725 31.4473 22.9254 31.4473 22.6207V18.7587H0.550781V22.6207C0.550781 22.9254 0.797781 23.1725 1.10247 23.1725Z" fill="#707487"/>
<path d="M21.5163 18.7587V9.93115H19.3094V18.7587H0.550781V20.9656H31.4473V18.7587H21.5163Z" fill="#5B5D6E"/>
<path d="M0.55175 4.96545H19.3104C19.6151 4.96545 19.8621 5.21252 19.8621 5.5172V18.7586C19.8621 19.0633 19.6151 19.3103 19.3104 19.3103H0.55175C0.247063 19.3103 0 19.0633 0 18.7586V5.5172C0 5.21252 0.247063 4.96545 0.55175 4.96545Z" fill="#FFD782"/>
<path d="M30.6492 14.1161L28.073 13.38L27.2739 8.9838C27.0827 7.93424 26.1694 7.17236 25.1026 7.17236H21.5185C21.2136 7.17236 20.9668 7.41911 20.9668 7.72411V17.6552H31.4495V15.1771C31.4495 14.6844 31.123 14.2514 30.6492 14.1161ZM23.1737 13.2413C22.5643 13.2413 22.0703 12.7473 22.0703 12.1379V9.37924C22.0703 9.07455 22.3174 8.82749 22.622 8.82749H25.67C25.937 8.82749 26.1657 9.01861 26.213 9.28136L26.8584 12.8621C26.8939 13.0596 26.7422 13.2413 26.5415 13.2413H23.1737Z" fill="#FFD782"/>
<path d="M25.9295 27.0344C27.7578 27.0344 29.2399 25.5523 29.2399 23.7241C29.2399 21.8958 27.7578 20.4137 25.9295 20.4137C24.1012 20.4137 22.6191 21.8958 22.6191 23.7241C22.6191 25.5523 24.1012 27.0344 25.9295 27.0344Z" fill="#464655"/>
<path d="M25.9295 25.931C27.1484 25.931 28.1364 24.9429 28.1364 23.7241C28.1364 22.5053 27.1484 21.5172 25.9295 21.5172C24.7107 21.5172 23.7227 22.5053 23.7227 23.7241C23.7227 24.9429 24.7107 25.931 25.9295 25.931Z" fill="#C7CFE2"/>
<path d="M25.9311 24.5517C26.3881 24.5517 26.7586 24.1812 26.7586 23.7242C26.7586 23.2671 26.3881 22.8966 25.9311 22.8966C25.474 22.8966 25.1035 23.2671 25.1035 23.7242C25.1035 24.1812 25.474 24.5517 25.9311 24.5517Z" fill="#AFB9D2"/>
<path d="M5.51741 27.0344C7.34568 27.0344 8.82778 25.5523 8.82778 23.7241C8.82778 21.8958 7.34568 20.4137 5.51741 20.4137C3.68914 20.4137 2.20703 21.8958 2.20703 23.7241C2.20703 25.5523 3.68914 27.0344 5.51741 27.0344Z" fill="#464655"/>
<path d="M5.51742 25.931C6.73625 25.931 7.7243 24.9429 7.7243 23.7241C7.7243 22.5053 6.73625 21.5172 5.51742 21.5172C4.2986 21.5172 3.31055 22.5053 3.31055 23.7241C3.31055 24.9429 4.2986 25.931 5.51742 25.931Z" fill="#C7CFE2"/>
<path d="M5.51702 24.5517C5.97407 24.5517 6.34458 24.1812 6.34458 23.7242C6.34458 23.2671 5.97407 22.8966 5.51702 22.8966C5.05997 22.8966 4.68945 23.2671 4.68945 23.7242C4.68945 24.1812 5.05997 24.5517 5.51702 24.5517Z" fill="#AFB9D2"/>
<path d="M21.5185 22.6206H21.7293C21.9382 22.6206 22.1293 22.5026 22.2227 22.3157L23.4205 19.9203C23.6074 19.5465 23.9894 19.3103 24.4074 19.3103H27.4573C27.8752 19.3103 28.2574 19.5465 28.4442 19.9203L29.642 22.3157C29.7354 22.5026 29.9265 22.6206 30.1354 22.6206H31.4495C31.7542 22.6206 32.0013 22.3736 32.0013 22.0689V18.2068C32.0013 17.5974 31.5073 17.1034 30.8979 17.1034H20.9668V22.0689C20.9668 22.3736 21.2139 22.6206 21.5185 22.6206Z" fill="#FFC36E"/>
<path d="M19.3112 24.2758H13.7939C13.4893 24.2758 13.2422 24.0288 13.2422 23.7241V21.5172C13.2422 21.2125 13.4893 20.9655 13.7939 20.9655H19.3112C19.6159 20.9655 19.8629 21.2125 19.8629 21.5172V23.7241C19.8629 24.0288 19.6159 24.2758 19.3112 24.2758Z" fill="#AFB9D2"/>
<path d="M15.4482 22.0688C15.1435 22.0688 14.8965 22.3159 14.8965 22.6206V24.2758H16V22.6206C16 22.3159 15.7529 22.0688 15.4482 22.0688Z" fill="#959CB3"/>
<path d="M17.6553 22.0688C17.3506 22.0688 17.1035 22.3159 17.1035 22.6206V24.2758H18.207V22.6206C18.207 22.3159 17.96 22.0688 17.6553 22.0688Z" fill="#959CB3"/>
<path d="M18.207 18.2068H1.65527C1.35058 18.2068 1.10352 17.9597 1.10352 17.655C1.10352 17.3503 1.35058 17.1033 1.65527 17.1033H18.207C18.5116 17.1033 18.7587 17.3503 18.7587 17.655C18.7587 17.9598 18.5116 18.2068 18.207 18.2068Z" fill="#FFC36E"/>
</g>
<defs>
<clipPath id="clip0">
<rect width="32" height="32" fill="white"/>
</clipPath>
</defs>
</svg>
