<svg width="400" height="400" viewBox="0 0 400 400" fill="none" xmlns="http://www.w3.org/2000/svg">
<g clip-path="url(#clip0)">
<path d="M324.641 202.811L286.673 188.982C285.501 188.514 284.094 188.28 282.689 188.28H39.4072C32.844 188.28 27.6885 193.436 27.6885 199.999V364.843C27.6885 384.295 43.3908 399.999 62.8448 399.999H297.22C316.674 399.999 332.377 384.295 332.377 364.843V213.826C332.377 208.905 329.329 204.452 324.641 202.811Z" fill="#FC1A40"/>
<path d="M332.37 213.826V364.843C332.37 384.295 316.668 399.999 297.214 399.999H180.026V188.28H282.682C284.089 188.28 285.495 188.514 286.666 188.982L324.635 202.811C329.322 204.452 332.37 208.905 332.37 213.826Z" fill="#C60034"/>
<path d="M328.155 76.3993C324.171 60.2274 312.217 47.5719 296.045 42.4149C280.108 37.4922 262.998 41.0086 250.577 52.2579L223.388 76.165L217.998 40.3063C215.42 23.9 204.873 10.0711 189.171 3.50934C186.124 2.33668 183.077 1.39918 180.03 0.930425C167.14 -1.64771 153.78 1.1648 142.998 9.13435C128.701 19.4469 121.437 36.7907 123.779 54.1337C126.358 71.4774 138.077 86.2431 154.717 92.1025L180.03 101.243L211.202 112.728C211.437 112.728 211.437 112.728 211.437 112.728L265.577 132.649C270.967 134.524 276.592 135.463 281.983 135.463C293.469 135.463 304.718 131.242 313.624 123.274C326.749 111.556 332.374 93.508 328.155 76.3993Z" fill="#FE9923"/>
<path d="M313.62 123.273C304.714 131.241 293.464 135.461 281.978 135.461C276.589 135.461 270.964 134.523 265.573 132.647L211.432 112.726C211.432 112.726 211.432 112.726 211.198 112.726L180.026 101.241V0.927734C183.073 1.39727 186.12 2.33399 189.167 3.50665C204.869 10.0684 215.417 23.8973 217.994 40.3036L223.384 76.1623L250.572 52.2552C262.993 41.0059 280.103 37.4895 296.041 42.4122C312.213 47.5692 324.166 60.2247 328.15 76.3966C332.37 93.5061 326.745 111.554 313.62 123.273Z" fill="#FE8821"/>
<path d="M372.451 182.889L356.513 226.952C354.637 231.639 350.184 234.452 345.497 234.452C344.09 234.452 342.684 234.217 341.513 233.749L220.34 189.687L209.325 153.359L180.028 159.92L154.248 165.78L33.0749 121.717C26.9811 119.374 23.935 112.577 26.0436 106.717L42.2155 62.6561C45.2624 53.7498 51.8257 46.717 60.2632 42.7334C68.7007 38.7498 78.3094 38.2803 87.2156 41.5615L180.029 75.3116L186.358 77.6546C186.358 77.6546 211.67 123.593 212.374 123.593C212.843 123.593 222.921 117.968 232.764 112.577C242.606 107.186 252.45 101.562 252.45 101.562L351.356 137.655C360.262 140.936 367.294 147.499 371.277 155.937C375.263 164.373 375.731 173.984 372.451 182.889Z" fill="#FF3E75"/>
<path d="M372.448 182.89L356.511 226.953C354.635 231.64 350.182 234.453 345.494 234.453C344.088 234.453 342.682 234.218 341.511 233.75L220.338 189.688L209.323 153.359L180.026 159.921V75.3125L186.355 77.6555C186.355 77.6555 211.667 123.594 212.37 123.594C212.84 123.594 222.917 117.969 232.761 112.577C242.603 107.187 252.448 101.563 252.448 101.563L351.354 137.656C360.26 140.937 367.291 147.5 371.275 155.938C375.261 164.374 375.729 173.985 372.448 182.89Z" fill="#FC1A40"/>
<path d="M144.87 188.281V400H215.182V188.281H144.87Z" fill="#FCBF29"/>
<path d="M186.354 77.655L180.025 94.9988L154.245 165.781L180.025 175.157L209.322 185.704L220.337 189.687L252.448 101.562L186.354 77.655Z" fill="#FCBF29"/>
<path d="M215.182 188.281H180.026V400H215.182V188.281Z" fill="#FE9923"/>
<path d="M252.448 101.562L220.338 189.687L209.323 185.703L180.026 175.156V94.9988L186.354 77.655L252.448 101.562Z" fill="#FE9923"/>
</g>
<defs>
<clipPath id="clip0">
<rect width="400" height="400" fill="white"/>
</clipPath>
</defs>
</svg>
