<svg width="100" height="100" viewBox="0 0 100 100" fill="none" xmlns="http://www.w3.org/2000/svg">
<g clip-path="url(#clip0)">
<path d="M73.6233 5.56787H73.4477C60.5518 5.56787 53.3418 15.0054 50.0006 21.3946C46.6006 15.0052 39.4495 5.56787 26.5536 5.56787H26.3194C12.368 5.68525 0.740663 17.5845 0.0373425 32.6493C-0.84215 51.1138 13.8922 63.5407 35.9323 82.2985C39.7426 85.5812 43.7873 89.0397 48.0662 92.7327L50.0008 94.4325L51.9354 92.7327C56.1557 89.0397 60.259 85.5812 64.0694 82.2985C86.1092 63.5407 100.842 51.1138 99.9629 32.6493C99.259 17.5843 87.5744 5.68506 73.6233 5.56787Z" fill="#FF3636"/>
<path d="M99.9626 32.6493C100.842 51.1138 86.1091 63.5407 64.069 82.2985C60.2587 85.5812 56.1554 89.0397 51.9351 92.7327L50.0005 94.4325V21.3946C53.3417 15.0052 60.5517 5.56787 73.4476 5.56787H73.6231C87.5745 5.68506 99.2591 17.5843 99.9626 32.6493Z" fill="#F40000"/>
</g>
<defs>
<clipPath id="clip0">
<rect width="100" height="100" fill="white"/>
</clipPath>
</defs>
</svg>
