<svg width="70" height="70" viewBox="0 0 70 70" fill="none" xmlns="http://www.w3.org/2000/svg">
<g clip-path="url(#clip0)">
<path d="M69.9837 65.0354L64.4843 34.737C64.4294 34.4345 64.2419 34.1726 63.9731 34.0232L50.1314 26.3245C49.9517 26.2244 49.7503 26.1846 49.5525 26.2L52.0707 58.6855L51.9864 58.7232L68.5518 66.1548C68.6866 66.2151 68.8299 66.2449 68.9725 66.2449C69.1982 66.2449 69.4219 66.1707 69.6058 66.0267C69.9063 65.7921 70.0516 65.4104 69.9837 65.0354Z" fill="#44C868"/>
<path d="M35.0001 33.6842L20.8436 26.3108C20.6739 26.2223 20.4858 26.1862 20.3005 26.1987C20.3496 26.1957 20.399 26.1959 20.4479 26.1998L17.9297 58.6853L34.5795 66.1548C34.7139 66.215 34.8573 66.2449 35.0001 66.2449V33.6842Z" fill="#44C868"/>
<path d="M20.4479 26.2C20.2501 26.1846 20.0487 26.2244 19.8691 26.3244L6.02721 34.023C5.75842 34.1725 5.57084 34.4343 5.51602 34.7368L0.0167704 65.0353C-0.0513157 65.4102 0.0941534 65.7919 0.394525 66.0268C0.578686 66.1707 0.802221 66.245 1.02781 66.245C1.17041 66.245 1.31382 66.2153 1.44849 66.1549L17.9237 58.7637L20.4479 26.2Z" fill="#4CE166"/>
<path d="M49.5525 26.1992C49.4163 26.2097 49.2816 26.246 49.1568 26.3111L35.0002 33.6843V66.245C35.0002 66.245 35.0002 66.245 35.0004 66.245C35.1433 66.245 35.2868 66.2152 35.4211 66.1549L52.0708 58.6854L49.5525 26.1992Z" fill="#4CE166"/>
<path d="M3.84906 43.9185L2.73193 50.0735L19.2741 41.3363L19.6582 36.3817L19.7219 35.5601L3.84906 43.9185Z" fill="#FFDB56"/>
<path d="M19.4233 39.4155L19.2745 41.3367L2.73228 50.0739L0.0167704 65.0354C-0.0513157 65.4103 0.0941533 65.792 0.394525 66.0269C0.578686 66.1709 0.802221 66.2451 1.02781 66.2451C1.17041 66.2451 1.31382 66.2155 1.44849 66.155L17.9237 58.7639L19.4233 39.4155Z" fill="#A8EEFC"/>
<path d="M35.0044 37.7452L19.7222 35.5601L19.2744 41.3363L35.0003 65.2182V56.5341L25.6163 41.7578L35.0044 42.8807V37.7452Z" fill="#FFBB24"/>
<path d="M62.8834 33.4171L56.234 29.7188L49.9392 31.1896L50.018 32.2062L50.3289 36.2167L62.8834 33.4171Z" fill="#FFBB24"/>
<path d="M50.8868 43.4187L50.2907 35.7284L49.939 31.1895L35.0039 37.7454V42.8808L44.7596 38.6384L50.8868 43.4187Z" fill="#FFDB56"/>
<path d="M69.9833 65.0354L68.6021 57.4248L50.3286 36.2168L50.887 43.4189L69.6271 66.0077C69.912 65.7716 70.0497 65.4008 69.9833 65.0354Z" fill="#FFBB24"/>
<path d="M35.0658 3.75488C27.1411 3.75488 20.6938 10.1968 20.6938 18.115C20.6938 23.0131 23.0193 28.2719 27.6058 33.745C30.9744 37.765 34.2973 40.3505 34.4371 40.4586C34.6222 40.6018 34.844 40.6733 35.0659 40.6733C35.2876 40.6733 35.5095 40.6018 35.6947 40.4586C35.8344 40.3505 39.1573 37.765 42.526 33.745C47.1125 28.2719 49.4379 23.0133 49.4379 18.115C49.4377 10.1968 42.9904 3.75488 35.0658 3.75488ZM40.3882 18.1149C40.3882 21.0519 38.0052 23.433 35.0658 23.433C32.1263 23.433 29.7433 21.052 29.7433 18.1149C29.7433 15.1778 32.1263 12.7968 35.0658 12.7968C38.0052 12.7968 40.3882 15.1779 40.3882 18.1149Z" fill="#FF4A4A"/>
<path d="M35.0657 3.75488C34.4376 3.75488 33.8189 3.79563 33.2119 3.8741C40.2643 4.78561 45.7302 10.8243 45.7302 18.115C45.7302 23.0131 43.4047 28.2719 38.8182 33.745C36.6519 36.3301 34.5061 38.3206 33.2121 39.442C33.9304 40.0643 34.3873 40.4201 34.4371 40.4586C34.6222 40.6018 34.8439 40.6733 35.0658 40.6733C35.2876 40.6733 35.5095 40.6018 35.6946 40.4586C35.8343 40.3505 39.1573 37.765 42.5259 33.745C47.1124 28.2719 49.4379 23.0133 49.4379 18.115C49.4376 10.1968 42.9903 3.75488 35.0657 3.75488Z" fill="#E7343F"/>
<path d="M35.4208 66.1547L41.6121 63.3771L35 56.5342V66.2448C35 66.2448 35 66.2448 35.0001 66.2448C35.143 66.2448 35.2864 66.2151 35.4208 66.1547Z" fill="#FFDB56"/>
<path d="M64.4847 34.7369C64.4299 34.4345 64.2423 34.1725 63.9735 34.0231L62.8838 33.417L50.3293 36.2166L68.6027 57.4246L64.4847 34.7369Z" fill="#1EA4E9"/>
<path d="M35.0003 66.2453C35.0004 66.2453 35.0004 66.2453 35.0003 66.2453V65.2189L19.2746 41.3369L17.9297 58.6859L34.5795 66.1554C34.7139 66.2157 34.8573 66.2453 35.0003 66.2453Z" fill="#1EA4E9"/>
</g>
<defs>
<clipPath id="clip0">
<rect width="70" height="70" fill="white"/>
</clipPath>
</defs>
</svg>
