<svg width="24" height="24" viewBox="0 0 24 24" fill="none" xmlns="http://www.w3.org/2000/svg">
<path d="M20.4853 3.51469C18.2188 1.24823 15.2053 0 12 0C8.79469 0 5.78123 1.24823 3.51469 3.51469C1.24814 5.78114 0 8.79469 0 12C0 15.2053 1.24823 18.2188 3.51469 20.4853C5.78114 22.7519 8.79469 24 12 24C15.2053 24 18.2188 22.7518 20.4853 20.4853C22.7519 18.2189 24 15.2053 24 12C24 8.79469 22.7518 5.78123 20.4853 3.51469Z" fill="#FF9420"/>
<path d="M3.51469 3.51469C1.24823 5.78123 0 8.79469 0 12C0 15.2053 1.24823 18.2188 3.51469 20.4853C5.78114 22.7519 8.79469 24 12 24V0C8.79469 0 5.78123 1.24823 3.51469 3.51469Z" fill="#FFAD49"/>
<path d="M11.9992 21.923C9.34869 21.923 6.85677 20.8908 4.98256 19.0166C3.10836 17.1424 2.07617 14.6505 2.07617 12C2.07617 9.34942 3.10836 6.8575 4.98256 4.98329C6.85677 3.10909 9.34869 2.0769 11.9992 2.0769C14.6498 2.0769 17.1417 3.10909 19.0159 4.98329C20.8901 6.8575 21.9223 9.34942 21.9223 12C21.9223 14.6505 20.8901 17.1424 19.0159 19.0166C17.1417 20.8908 14.6498 21.923 11.9992 21.923ZM11.9992 3.4615C7.29111 3.4615 3.46077 7.29184 3.46077 12C3.46077 16.7081 7.29111 20.5384 11.9992 20.5384C16.7074 20.5384 20.5377 16.7081 20.5377 12C20.5377 7.29184 16.7074 3.4615 11.9992 3.4615Z" fill="#00457D"/>
<path d="M3.46076 12C3.46076 7.29184 7.2911 3.4615 11.9992 3.4615V2.0769C9.34868 2.0769 6.85676 3.10909 4.98256 4.98329C3.10836 6.8575 2.07617 9.34942 2.07617 12C2.07617 14.6505 3.10836 17.1424 4.98256 19.0166C6.85676 20.8908 9.34868 21.923 11.9992 21.923V20.5384C7.2911 20.5384 3.46076 16.7081 3.46076 12Z" fill="#0072AE"/>
<path d="M16.6164 7.61536H13.8472C13.6492 7.61536 13.4608 7.70006 13.3294 7.84809L12.001 9.34486L10.6727 7.84814C10.5413 7.70001 10.3528 7.61536 10.1549 7.61536H7.38566C7.0033 7.61536 6.69336 7.92534 6.69336 8.30765V15.6922C6.69336 16.0746 7.00334 16.3845 7.38566 16.3845H9.23183C9.61419 16.3845 9.92413 16.0746 9.92413 15.6922V12.1571L11.4926 13.8544C11.6236 13.9962 11.8079 14.0768 12.0011 14.0768C12.1942 14.0768 12.3785 13.9962 12.5096 13.8544L14.078 12.1571V15.6922C14.078 16.0746 14.388 16.3845 14.7703 16.3845H16.6165C16.9988 16.3845 17.3088 16.0746 17.3088 15.6922V8.30765C17.3087 7.92529 16.9987 7.61536 16.6164 7.61536Z" fill="#B7293F"/>
<path d="M10.6727 7.84809C10.5413 7.70001 10.3528 7.61536 10.1549 7.61536H7.38565C7.0033 7.61536 6.69336 7.92534 6.69336 8.30765V15.6922C6.69336 16.0746 7.00334 16.3845 7.38565 16.3845H9.23182C9.61418 16.3845 9.92412 16.0746 9.92412 15.6922V12.1571L11.4926 13.8544C11.6236 13.9962 11.8079 14.0768 12.0011 14.0768V9.34481L10.6727 7.84809Z" fill="#F0204B"/>
</svg>
