<svg width="100" height="100" viewBox="0 0 100 100" fill="none" xmlns="http://www.w3.org/2000/svg">
<path d="M99.0561 94.897C99.9347 95.717 100.228 97.0061 99.8173 98.1192C99.3488 99.2324 98.2944 99.994 97.0639 99.994H61.717C41.8563 99.994 25.5696 86.0893 23.812 67.8693L61.717 40.5683L74.3132 31.4873C89.5454 36.4087 99.9933 49.7078 99.9933 64.6472C99.9933 73.025 96.8298 81.1293 91.0294 87.4567L99.0561 94.897Z" fill="#949494"/>
<path d="M99.0555 94.8962C99.9341 95.7162 100.227 97.0053 99.8167 98.1184C99.3482 99.2316 98.2939 99.9932 97.0634 99.9932H61.7164V40.5674L74.3126 31.4863C89.5448 36.4078 99.9927 49.7068 99.9927 64.6463C99.9927 73.0241 96.8292 81.1283 91.0288 87.4558L99.0555 94.8962Z" fill="#7E7E7E"/>
<path d="M38.283 0C17.309 0 0.00674043 15.9549 0.00674043 35.3469C0.00674043 43.7247 3.17019 51.6337 8.97061 57.9612L0.943923 65.4016C0.0653265 66.2216 -0.227604 67.5107 0.182694 68.6238C0.651187 69.737 1.70554 70.4986 2.93605 70.4986H38.283C59.2568 70.4986 76.3639 54.7389 76.3639 35.3469C76.3639 15.9549 59.2568 0 38.283 0Z" fill="#DFDFDF"/>
<path d="M76.3645 35.3528C76.3645 54.7448 59.2576 70.5044 38.2836 70.5044V0.00585938C59.2574 0.00585938 76.3645 15.9608 76.3645 35.3528Z" fill="#C9C9C9"/>
<path d="M58.7889 20.7057C58.7889 22.3463 57.5002 23.635 55.8596 23.635H20.708C19.0674 23.635 17.7787 22.3463 17.7787 20.7057C17.7787 19.0651 19.0674 17.7764 20.708 17.7764H55.8596C57.5 17.7764 58.7889 19.0651 58.7889 20.7057Z" fill="#949494"/>
<path d="M58.7889 32.4234C58.7889 34.0637 57.5002 35.3527 55.8596 35.3527H20.708C19.0674 35.3527 17.7787 34.0637 17.7787 32.4234C17.7787 30.7828 19.0674 29.4941 20.708 29.4941H55.8596C57.5 29.4941 58.7889 30.7828 58.7889 32.4234Z" fill="#949494"/>
<path d="M58.7889 44.1402C58.7889 45.7805 57.5002 47.0695 55.8596 47.0695H20.708C19.0674 47.0695 17.7787 45.7805 17.7787 44.1402C17.7787 42.4996 19.0674 41.2109 20.708 41.2109H55.8596C57.5 41.2109 58.7889 42.4996 58.7889 44.1402Z" fill="#949494"/>
<path d="M58.7887 44.1402C58.7887 45.7805 57.5 47.0695 55.8594 47.0695H38.2836V41.2109H55.8594C57.4998 41.2109 58.7887 42.4996 58.7887 44.1402Z" fill="#7E7E7E"/>
<path d="M58.7887 32.4234C58.7887 34.0637 57.5 35.3527 55.8594 35.3527H38.2836V29.4941H55.8594C57.4998 29.4941 58.7887 30.7828 58.7887 32.4234Z" fill="#7E7E7E"/>
<path d="M55.8594 23.635H38.2836V17.7764H55.8594C57.5 17.7764 58.7887 19.0651 58.7887 20.7057C58.7887 22.3463 57.4998 23.635 55.8594 23.635Z" fill="#7E7E7E"/>
</svg>
